<?xml version="1.0"?><svg width="793.7007874015749" height="1122.5196850393702" xmlns="http://www.w3.org/2000/svg" xmlns:xlink="http://www.w3.org/1999/xlink">
 <title>green_car_top view</title>
 <defs>
  <linearGradient id="linearGradient3258">
   <stop stop-color="#3f3a4a" offset="0" id="stop3259"/>
   <stop stop-color="#afaa9d" offset="1" id="stop3260"/>
  </linearGradient>
  <linearGradient id="linearGradient3225">
   <stop stop-color="#000000" stop-opacity="0.3804" offset="0" id="stop3226"/>
   <stop stop-color="#000000" stop-opacity="0" offset="1" id="stop3227"/>
  </linearGradient>
  <linearGradient id="linearGradient3178">
   <stop stop-color="#ffff97" offset="0" id="stop3179"/>
   <stop stop-color="#ffffe7" offset="1" id="stop3180"/>
  </linearGradient>
  <linearGradient id="linearGradient3109">
   <stop stop-color="#dddaff" stop-opacity="0.8196" offset="0" id="stop3110"/>
   <stop stop-color="#6a72ff" stop-opacity="0.5843" offset="1" id="stop3111"/>
  </linearGradient>
  <linearGradient id="linearGradient3061">
   <stop stop-color="#ffff00" stop-opacity="0.5804" offset="0" id="stop3062"/>
   <stop stop-color="#ffffff" stop-opacity="0" offset="1" id="stop3063"/>
  </linearGradient>
  <linearGradient id="linearGradient3042">
   <stop stop-color="#000000" stop-opacity="0.902" offset="0" id="stop3043"/>
   <stop stop-color="#000000" stop-opacity="0" offset="1" id="stop3044"/>
  </linearGradient>
  <linearGradient id="linearGradient3034">
   <stop stop-color="#ff0000" stop-opacity="0.5804" offset="0" id="stop3035"/>
   <stop stop-color="#ffffff" stop-opacity="0" offset="1" id="stop3036"/>
  </linearGradient>
  <linearGradient id="linearGradient3012">
   <stop stop-color="#ffffff" stop-opacity="0.902" offset="0" id="stop3013"/>
   <stop stop-color="#ffffff" stop-opacity="0" offset="1" id="stop3014"/>
  </linearGradient>
  <linearGradient id="linearGradient650">
   <stop stop-color="#000" offset="0" id="stop651"/>
   <stop stop-color="#fff" offset="1" id="stop652"/>
  </linearGradient>
  <linearGradient y2="1.085714" y1="0.28572" xlink:href="#linearGradient3012" x2="0.832714" x1="0.36802" id="linearGradient653"/>
  <linearGradient y2="1.124998" y1="0.156177" xlink:href="#linearGradient3012" x2="0.539033" x1="0.501854" id="linearGradient3011"/>
  <linearGradient y2="1.08" y1="0.139999" xlink:href="#linearGradient3012" x2="0.327137" x1="0.799256" id="linearGradient3031"/>
  <linearGradient y2="0.53125" y1="0.125" xlink:href="#linearGradient650" x2="1.896552" x1="-1.620691" id="linearGradient3032"/>
  <linearGradient y2="0.632815" y1="0.531289" xlink:href="#linearGradient3061" x2="0.265734" x1="0.405593" id="linearGradient3033"/>
  <radialGradient xlink:href="#linearGradient3061" r="2.103039" id="radialGradient3037" gradientTransform="translate(-9.396047e-8,-1.789761e-6)" fy="0.491816" fx="0.488374" cy="0.491816" cx="0.488374"/>
  <linearGradient y2="0" y1="0" xlink:href="#linearGradient3012" x2="1" x1="0" id="linearGradient3038"/>
  <linearGradient y2="-1.070036" y1="-1.070036" xlink:href="#linearGradient3012" x2="1" x1="0" id="linearGradient3039"/>
  <linearGradient y2="0.421876" y1="0.406266" xlink:href="#linearGradient650" x2="-0.13986" x1="1.160839" id="linearGradient3040"/>
  <linearGradient y2="0.706897" y1="1.206904" xlink:href="#linearGradient3042" x2="0.509294" x1="0.513011" id="linearGradient3041"/>
  <linearGradient y2="0.499999" y1="1.449995" xlink:href="#linearGradient3042" x2="0.494424" x1="0.501859" id="linearGradient3045"/>
  <linearGradient y2="0.799999" y1="1.099998" xlink:href="#linearGradient3042" x2="0.494424" x1="0.513012" id="linearGradient3046"/>
  <linearGradient y2="1.386362" y1="-0.727277" xlink:href="#linearGradient3042" x2="0.449813" x1="0.449803" id="linearGradient3047"/>
  <linearGradient y2="-2.799288" y1="-2.629167" xlink:href="#linearGradient650" x2="2.116821" x1="-2.930983" id="linearGradient3053"/>
  <linearGradient y2="0.41553" y1="0.233738" xlink:href="#linearGradient650" x2="1.527252" x1="-1.180133" id="linearGradient3054" gradientTransform="matrix(1.108076,0,0,0.902465,1.024808e-6,1.860413e-7)"/>
  <linearGradient y2="-0.000001" y1="-0.000001" xlink:href="#linearGradient3225" x2="1" x1="0" id="linearGradient3055"/>
  <linearGradient y2="0.873978" y1="0.873978" xlink:href="#linearGradient3225" x2="0.008444" x1="-0.688096" id="linearGradient3056" gradientTransform="scale(1.508278,0.663008)"/>
  <radialGradient xlink:href="#linearGradient3034" r="1.139373" id="radialGradient3058" gradientTransform="translate(2.835767e-6,-4.226706e-8)" fy="0.498003" fx="0.507198" cy="0.498003" cx="0.507198"/>
  <radialGradient xlink:href="#linearGradient3034" r="0.859446" id="radialGradient3059" gradientTransform="translate(1.025566e-6,-7.449034e-8)" fy="0.508372" fx="0.499114" cy="0.508372" cx="0.499114"/>
  <linearGradient y2="0.75" y1="0.039062" xlink:href="#linearGradient650" x2="1.155555" x1="-0.266667" id="linearGradient3060"/>
  <linearGradient y2="0" y1="0" xlink:href="#linearGradient3012" x2="1" x1="0" id="linearGradient3064"/>
  <linearGradient y2="0.414063" y1="0.328125" xlink:href="#linearGradient650" x2="1.255814" x1="-1.883721" id="linearGradient3065"/>
  <linearGradient y2="0.445312" y1="0.367188" xlink:href="#linearGradient650" x2="18.107601" x1="-7.685398" id="linearGradient3066"/>
  <linearGradient y2="0.164013" y1="0.073805" xlink:href="#linearGradient650" x2="23.248363" x1="-6.533851" id="linearGradient3067" gradientTransform="scale(0.364412,2.744146)"/>
  <linearGradient y2="0" y1="0" xlink:href="#linearGradient3012" x2="1" x1="0" id="linearGradient3068"/>
  <linearGradient y2="0.000001" y1="1.155173" xlink:href="#linearGradient3042" x2="0.672862" x1="0.684015" id="linearGradient3069"/>
  <linearGradient y2="-0.000001" y1="-0.000001" xlink:href="#linearGradient3012" x2="1" x1="0" id="linearGradient3070"/>
  <linearGradient y2="0" y1="0" xlink:href="#linearGradient3042" x2="1" x1="0" id="linearGradient3071"/>
  <linearGradient y2="0" y1="0" xlink:href="#linearGradient3012" x2="1" x1="0" id="linearGradient3072"/>
  <linearGradient y2="0" y1="0" xlink:href="#linearGradient3042" x2="1" x1="0" id="linearGradient3073"/>
  <linearGradient y2="0" y1="0" xlink:href="#linearGradient3042" x2="1" x1="0" id="linearGradient3074"/>
  <linearGradient y2="1.322021" y1="1.322021" xlink:href="#linearGradient3042" x2="0.976191" x1="-0.023808" id="linearGradient3075" gradientTransform="scale(0.999999,1.000001)"/>
  <linearGradient y2="0" y1="0" xlink:href="#linearGradient3042" x2="1" x1="0" id="linearGradient3076"/>
  <linearGradient y2="1.322021" y1="1.322021" xlink:href="#linearGradient3042" x2="0.976191" x1="-0.023808" id="linearGradient3077" gradientTransform="scale(0.999999,1.000001)"/>
  <linearGradient y2="0" y1="0" xlink:href="#linearGradient3012" x2="1" x1="0" id="linearGradient3078"/>
  <linearGradient y2="0" y1="0" xlink:href="#linearGradient3042" x2="1" x1="0" id="linearGradient3079"/>
  <linearGradient y2="0.453125" y1="0.445313" xlink:href="#linearGradient650" x2="2.714288" x1="-2.38095" id="linearGradient3080"/>
  <linearGradient y2="0" y1="0" xlink:href="#linearGradient3042" x2="1" x1="0" id="linearGradient3081"/>
  <linearGradient y2="0.242188" y1="0.179688" xlink:href="#linearGradient3042" x2="0.895523" x1="-0.850748" id="linearGradient3082"/>
  <linearGradient y2="0" y1="0" xlink:href="#linearGradient3042" x2="1" x1="0" id="linearGradient3083"/>
  <linearGradient y2="0.867188" y1="0.039067" xlink:href="#linearGradient650" x2="-0.112359" x1="-0.168541" id="linearGradient3084"/>
  <linearGradient y2="1.188764" y1="0.068581" xlink:href="#linearGradient650" x2="0.667049" x1="-1.63379" id="linearGradient3085" gradientTransform="scale(1.463094,0.683483)"/>
  <linearGradient y2="0.780668" y1="0.027844" xlink:href="#linearGradient650" x2="1.082402" x1="-0.463887" id="linearGradient3086" gradientTransform="scale(0.962888,1.038542)"/>
  <linearGradient y2="0" y1="0" xlink:href="#linearGradient3042" x2="1" x1="0" id="linearGradient3087"/>
  <linearGradient y2="-0.012471" y1="-0.012471" xlink:href="#linearGradient3042" x2="1.599815" x1="0.927761" id="linearGradient3088" gradientTransform="scale(0.658118,1.519485)"/>
  <linearGradient y2="0" y1="0" xlink:href="#linearGradient3042" x2="1" x1="0" id="linearGradient3089"/>
  <linearGradient y2="0.4375" y1="0.4375" xlink:href="#linearGradient3042" x2="0.689655" x1="-1.103447" id="linearGradient3090"/>
  <linearGradient y2="0" y1="0" xlink:href="#linearGradient3042" x2="1" x1="0" id="linearGradient3091"/>
  <linearGradient y2="1.007812" y1="0.343749" xlink:href="#linearGradient650" x2="2.384616" x1="-0.179479" id="linearGradient3092"/>
  <linearGradient y2="0" y1="0" xlink:href="#linearGradient3012" x2="1" x1="0" id="linearGradient3093"/>
  <linearGradient y2="0.906248" y1="0.054683" xlink:href="#linearGradient650" x2="0.794872" x1="-1.769244" id="linearGradient3094"/>
  <linearGradient y2="0" y1="0" xlink:href="#linearGradient3012" x2="1" x1="0" id="linearGradient3095"/>
  <linearGradient y2="1.578124" y1="0.070311" xlink:href="#linearGradient650" x2="-0.126214" x1="-0.310686" id="linearGradient3096"/>
  <linearGradient y2="0" y1="0" xlink:href="#linearGradient3042" x2="1" x1="0" id="linearGradient3097"/>
  <linearGradient y2="0" y1="0" xlink:href="#linearGradient3012" x2="1" x1="0" id="linearGradient3098"/>
  <linearGradient y2="0" y1="0" xlink:href="#linearGradient3012" x2="1" x1="0" id="linearGradient3099"/>
  <linearGradient y2="-0.132815" y1="0.632789" xlink:href="#linearGradient650" x2="1.329896" x1="0.298939" id="linearGradient3100"/>
  <linearGradient y2="0" y1="0" xlink:href="#linearGradient3012" x2="1" x1="0" id="linearGradient3101"/>
  <linearGradient y2="0.351563" y1="0.437501" xlink:href="#linearGradient650" x2="1.097903" x1="-0.174825" id="linearGradient3102"/>
  <linearGradient y2="0" y1="0" xlink:href="#linearGradient3042" x2="1" x1="0" id="linearGradient3103"/>
  <linearGradient y2="0.977271" y1="-0.000003" xlink:href="#linearGradient3012" x2="0.520445" x1="0.513005" id="linearGradient3104"/>
  <linearGradient y2="0" y1="0" xlink:href="#linearGradient3042" x2="1" x1="0" id="linearGradient3105"/>
  <linearGradient y2="0" y1="0" xlink:href="#linearGradient3042" x2="0.999999" x1="-0.000001" id="linearGradient3106"/>
  <linearGradient y2="0.955414" y1="0.012739" xlink:href="#linearGradient3109" x2="1.027398" x1="0.150685" id="linearGradient3108"/>
  <linearGradient y2="-3.333331" y1="1.583335" xlink:href="#linearGradient3042" x2="0.513011" x1="0.516719" id="linearGradient3112"/>
  <linearGradient y2="1.083333" y1="0.25" xlink:href="#linearGradient3042" x2="0.54275" x1="0.539029" id="linearGradient3113"/>
  <linearGradient y2="0" y1="0" xlink:href="#linearGradient3012" x2="1" x1="0" id="linearGradient3125"/>
  <linearGradient y2="0.484375" y1="0.914063" xlink:href="#linearGradient3012" x2="1.167832" x1="1.293706" id="linearGradient3126"/>
  <linearGradient y2="0" y1="0" xlink:href="#linearGradient3012" x2="1" x1="0" id="linearGradient3127"/>
  <linearGradient y2="0.44" y1="1.76" xlink:href="#linearGradient3042" x2="0.64684" x1="0.442379" id="linearGradient3128"/>
  <linearGradient y2="0.586207" y1="1.499998" xlink:href="#linearGradient3042" x2="0.635688" x1="0.531599" id="linearGradient3130"/>
  <linearGradient y2="0" y1="0" xlink:href="#linearGradient3042" x2="1" x1="0" id="linearGradient3131"/>
  <linearGradient y2="0" y1="0" xlink:href="#linearGradient3012" x2="1" x1="0" id="linearGradient3132"/>
  <linearGradient y2="0.6875" y1="0.710938" xlink:href="#linearGradient650" x2="-0.104895" x1="1.34965" id="linearGradient3133"/>
  <linearGradient y2="1.335938" y1="0.070312" xlink:href="#linearGradient3061" x2="-0.426573" x1="0.937063" id="linearGradient3134"/>
  <radialGradient xlink:href="#linearGradient3061" r="0.89979" id="radialGradient3135" fy="0.484433" fx="0.50385" cy="0.484433" cx="0.50385"/>
  <linearGradient y2="0.935065" y1="0.038961" xlink:href="#linearGradient3109" x2="0.929412" x1="0.105882" id="linearGradient3136"/>
  <linearGradient y2="0.414062" y1="0.171875" xlink:href="#linearGradient3109" x2="0.690141" x1="0.43662" spreadMethod="reflect" id="linearGradient3137"/>
  <linearGradient y2="-12.736577" y1="-12.736764" xlink:href="#linearGradient3012" x2="2.818515" x1="0.272743" id="linearGradient3138" gradientTransform="translate(-5.558941e-7,-2.589043e-6)"/>
  <linearGradient y2="6.801582" y1="6.801395" xlink:href="#linearGradient3012" x2="2.818392" x1="0.272625" id="linearGradient3139" gradientTransform="matrix(1.000002,0,0,0.999998,7.204335e-8,1.235793e-6)"/>
  <linearGradient y2="-4.353262" y1="-4.276788" xlink:href="#linearGradient650" x2="2.959456" x1="0.24662" id="linearGradient3140"/>
  <linearGradient y2="1.535901" y1="0.453594" xlink:href="#linearGradient650" x2="1.351904" x1="0.50947" id="linearGradient3141" gradientTransform="matrix(1,3.195287e-6,-1.537983e-6,1,5.093295e-7,-6.722576e-7)"/>
  <linearGradient y2="4.435552" y1="4.512025" xlink:href="#linearGradient650" x2="2.950544" x1="0.237715" id="linearGradient3142" gradientTransform="scale(1.000001,0.999999)"/>
  <linearGradient y2="0" y1="0" xlink:href="#linearGradient3042" x2="1" x1="0" id="linearGradient3143"/>
  <linearGradient y2="-8.788814" y1="-8.788814" xlink:href="#linearGradient3042" x2="1.008907" x1="0.008904" id="linearGradient3144" gradientTransform="scale(0.999999,1.000001)"/>
  <linearGradient y2="0.398437" y1="0.398437" xlink:href="#linearGradient650" x2="4.090909" x1="-7.090906" id="linearGradient3145"/>
  <linearGradient y2="0" y1="0" xlink:href="#linearGradient3012" x2="1" x1="0" id="linearGradient3146"/>
  <linearGradient y2="0.320313" y1="0.3125" xlink:href="#linearGradient650" x2="12.888882" x1="-0.666667" id="linearGradient3147"/>
  <linearGradient y2="0" y1="0" xlink:href="#linearGradient3012" x2="1" x1="0" id="linearGradient3148"/>
  <linearGradient y2="-1.93333" y1="1.100006" xlink:href="#linearGradient3012" x2="0.542751" x1="0.527881" id="linearGradient3172"/>
  <linearGradient y2="-1.399999" y1="0.833336" xlink:href="#linearGradient650" x2="0.524164" x1="0.513011" id="linearGradient3173"/>
  <linearGradient y2="-0.593749" y1="1.843762" xlink:href="#linearGradient650" x2="0.568773" x1="0.486989" id="linearGradient3174"/>
  <linearGradient y2="0.000001" y1="0.000001" xlink:href="#linearGradient3012" x2="1" x1="0" id="linearGradient3175"/>
  <linearGradient y2="0" y1="0" xlink:href="#linearGradient3012" x2="1" x1="0" id="linearGradient3176"/>
  <linearGradient y2="0.171875" y1="0.953125" xlink:href="#linearGradient3178" x2="0.72381" x1="0.076191" id="linearGradient3177"/>
  <linearGradient y2="0.375813" y1="2.131715" xlink:href="#linearGradient3042" x2="0.921533" x1="-1.212799" id="linearGradient3206"/>
  <linearGradient y2="-0.485001" y1="0.867933" xlink:href="#linearGradient3042" x2="1.765445" x1="0.120928" id="linearGradient3207" gradientTransform="scale(0.941732,1.061874)"/>
  <linearGradient y2="0.467377" y1="1.820311" xlink:href="#linearGradient3042" x2="1.765445" x1="0.120928" id="linearGradient3208" gradientTransform="scale(0.941732,1.061874)"/>
  <linearGradient y2="-0.62091" y1="1.134992" xlink:href="#linearGradient3042" x2="0.921533" x1="-1.212799" id="linearGradient3209"/>
  <linearGradient y2="0" y1="0" xlink:href="#linearGradient3042" x2="0.999999" x1="-0.000001" id="linearGradient3210"/>
  <linearGradient y2="0.34375" y1="0.414062" xlink:href="#linearGradient650" x2="-4.266665" x1="1.666662" id="linearGradient3211"/>
  <linearGradient y2="0" y1="0" xlink:href="#linearGradient3042" x2="1" x1="0" id="linearGradient3212"/>
  <linearGradient xlink:href="#linearGradient3178" id="linearGradient3213"/>
  <linearGradient y2="0.921875" y1="0.078125" xlink:href="#linearGradient3178" x2="0.867052" x1="0.080925" id="linearGradient3214"/>
  <linearGradient y2="-0.201766" y1="1.47299" xlink:href="#linearGradient3042" x2="0.675142" x1="-2.356856" id="linearGradient3215"/>
  <linearGradient y2="-0.053216" y1="1.737763" xlink:href="#linearGradient3042" x2="3.155561" x1="-0.086846" id="linearGradient3216" gradientTransform="scale(0.456186,-2.192088)"/>
  <linearGradient y2="-1.439268" y1="0.351711" xlink:href="#linearGradient3042" x2="3.141852" x1="-0.100556" id="linearGradient3217" gradientTransform="scale(0.456186,2.192088)"/>
  <linearGradient y2="-0.679446" y1="-2.385971" xlink:href="#linearGradient3042" x2="2.378004" x1="-0.856079" id="linearGradient3218"/>
  <linearGradient y2="0.787799" y1="-0.918725" xlink:href="#linearGradient3042" x2="2.373958" x1="-0.860124" id="linearGradient3219" gradientTransform="scale(0.999999,-1)"/>
  <linearGradient y2="0.671875" y1="0.578124" xlink:href="#linearGradient3042" x2="2.34328" x1="-0.596998" id="linearGradient3220"/>
  <linearGradient y2="0" y1="0" xlink:href="#linearGradient3012" x2="1.000001" x1="0.000001" id="linearGradient3221"/>
  <linearGradient y2="0.007812" y1="0.96875" xlink:href="#linearGradient3178" x2="0.929581" x1="0.084509" id="linearGradient3222"/>
  <linearGradient y2="0.425373" y1="0.962685" xlink:href="#linearGradient3225" x2="-0.319998" x1="-0.373311" spreadMethod="reflect" id="linearGradient3224"/>
  <linearGradient y2="-0.039062" y1="0.984397" xlink:href="#linearGradient650" x2="2.104481" x1="-0.880541" id="linearGradient3228"/>
  <linearGradient y2="0" y1="0" xlink:href="#linearGradient3012" x2="1.000001" x1="0.000001" id="linearGradient3229"/>
  <linearGradient y2="0" y1="0" xlink:href="#linearGradient3012" x2="1" x1="0" id="linearGradient3230"/>
  <linearGradient y2="0.570311" y1="0.773397" xlink:href="#linearGradient650" x2="2.406785" x1="-0.124289" id="linearGradient3231"/>
  <linearGradient y2="0.742188" y1="0.28125" xlink:href="#linearGradient650" x2="0.866665" x1="-0.333335" id="linearGradient3232"/>
  <linearGradient y2="0" y1="0" xlink:href="#linearGradient3012" x2="1" x1="0" id="linearGradient3233"/>
  <linearGradient y2="0" y1="0" xlink:href="#linearGradient3012" x2="1" x1="0" id="linearGradient3234"/>
  <linearGradient y2="0.453125" y1="0.40625" xlink:href="#linearGradient650" x2="1.771574" x1="0.370558" id="linearGradient3235"/>
  <linearGradient y2="0" y1="0" xlink:href="#linearGradient3012" x2="1" x1="0" id="linearGradient3236"/>
  <linearGradient y2="0.234375" y1="0.96875" xlink:href="#linearGradient3012" x2="1.52381" x1="-0.380952" id="linearGradient3237"/>
  <linearGradient y2="0.188523" y1="0.860654" xlink:href="#linearGradient650" x2="2.13011" x1="0.029739" id="linearGradient3238"/>
  <linearGradient y2="0.515624" y1="0.546871" xlink:href="#linearGradient3012" x2="-0.093462" x1="1.439231" id="linearGradient3239"/>
  <linearGradient y2="0.476561" y1="0.453111" xlink:href="#linearGradient650" x2="-0.064522" x1="2.161006" id="linearGradient3240" gradientTransform="translate(-3.766054e-6,-1.912122e-7)"/>
  <linearGradient y2="0.554688" y1="0.523448" xlink:href="#linearGradient650" x2="0.140349" x1="1.789394" id="linearGradient3241" gradientTransform="translate(-1.738222e-6,2.54332e-7)"/>
  <linearGradient y2="0" y1="0" xlink:href="#linearGradient3012" x2="0.999999" x1="-0.000001" id="linearGradient3242"/>
  <linearGradient y2="0" y1="0" xlink:href="#linearGradient3012" x2="1" x1="0" id="linearGradient3243"/>
  <linearGradient y2="0" y1="0" xlink:href="#linearGradient3012" x2="1.000001" x1="0.000001" id="linearGradient3244"/>
  <linearGradient y2="0.039474" y1="-0.013154" xlink:href="#linearGradient650" x2="1.762082" x1="0.029748" id="linearGradient3245"/>
  <linearGradient y2="0.603056" y1="0.366431" xlink:href="#linearGradient3012" x2="0.644805" x1="0.480875" spreadMethod="reflect" id="linearGradient3246" gradientTransform="scale(1.000003,0.999997)"/>
  <linearGradient xlink:href="#linearGradient3225" id="linearGradient3247"/>
  <linearGradient y2="1.178575" y1="0.071597" xlink:href="#linearGradient650" x2="1.011156" x1="0.375709" id="linearGradient3248" gradientTransform="translate(9.473836e-7,1.87123e-6)"/>
  <linearGradient y2="2.111111" y1="-1.72211" xlink:href="#linearGradient650" x2="0.706319" x1="0.286241" id="linearGradient3249" gradientTransform="translate(-1.036718e-7,2.778963e-6)"/>
  <linearGradient y2="0.42969" y1="0.054712" xlink:href="#linearGradient650" x2="1.482986" x1="-0.326483" id="linearGradient3250" gradientTransform="scale(1.000006,0.999994)"/>
  <linearGradient y2="0" y1="0" xlink:href="#linearGradient3012" x2="1.000001" x1="0.000001" id="linearGradient3251"/>
  <linearGradient y2="0" y1="0" xlink:href="#linearGradient3042" x2="1" x1="0" id="linearGradient3252"/>
  <linearGradient y2="0.515625" y1="0.398437" xlink:href="#linearGradient650" x2="3.044248" x1="-0.247788" id="linearGradient3253"/>
  <linearGradient xlink:href="#linearGradient3225" id="linearGradient3254"/>
  <linearGradient y2="0.492187" y1="0.523437" xlink:href="#linearGradient650" x2="12.142857" x1="-8.571433" id="linearGradient3255" gradientTransform="translate(-1.296411e-6,-2.1731e-8)"/>
  <linearGradient y2="0.488" y1="0.008001" xlink:href="#linearGradient3258" x2="0.531599" x1="0.527883" spreadMethod="reflect" id="linearGradient3257"/>
  <linearGradient y2="0.414063" y1="0.4375" xlink:href="#linearGradient3258" x2="-0.085714" x1="0.171434" id="linearGradient3261"/>
  <linearGradient y2="0" y1="0" xlink:href="#linearGradient3042" x2="1" x1="0" id="linearGradient3262"/>
  <linearGradient y2="0.265625" y1="0.390625" xlink:href="#linearGradient650" x2="3.6" x1="-0.4" id="linearGradient3263"/>
  <linearGradient y2="0" y1="0" xlink:href="#linearGradient3042" x2="1" x1="0" id="linearGradient3264"/>
  <linearGradient y2="0.459459" y1="0.581093" xlink:href="#linearGradient3258" x2="0.249071" x1="0.501863" id="linearGradient3265"/>
  <linearGradient y2="0" y1="0" xlink:href="#linearGradient3042" x2="1" x1="0" id="linearGradient3266"/>
  <linearGradient y2="0.078125" y1="0.921874" xlink:href="#linearGradient3258" x2="0.506276" x1="1.02092" id="linearGradient3267"/>
  <linearGradient y2="0" y1="0" xlink:href="#linearGradient3042" x2="1" x1="0" id="linearGradient3268"/>
  <linearGradient y2="0.229727" y1="-0.989871" xlink:href="#linearGradient3258" x2="0.944823" x1="0.040338" id="linearGradient3269"/>
  <linearGradient y2="1.191948" y1="0.0596" xlink:href="#linearGradient3258" x2="0.89421" x1="0.054432" id="linearGradient3270" gradientTransform="scale(1.028842,0.971966)"/>
  <linearGradient y2="0.18638" y1="-0.947351" xlink:href="#linearGradient3012" x2="0.375164" x1="1.148005" id="linearGradient3271"/>
  <linearGradient y2="1.151702" y1="0.099078" xlink:href="#linearGradient3012" x2="0.365304" x1="1.082857" id="linearGradient3272" gradientTransform="scale(1.028842,0.971966)"/>
  <linearGradient y2="0" y1="0" xlink:href="#linearGradient3012" x2="1.000001" x1="0.000001" id="linearGradient3316" gradientTransform="translate(1.024808e-6,1.860413e-7)"/>
  <linearGradient y2="-0.629216" y1="-0.629216" xlink:href="#linearGradient3012" x2="1.344811" x1="0.633361" id="linearGradient3317" gradientTransform="scale(0.902464,1.108078)"/>
  <linearGradient y2="0" y1="0" xlink:href="#linearGradient3012" x2="0.999999" x1="-0.000001" id="linearGradient3318"/>
  <linearGradient y2="0.402597" y1="0.422078" xlink:href="#linearGradient3012" x2="-0.025316" x1="0.974684" id="linearGradient3319"/>
  <linearGradient y2="0.953125" y1="0.132815" xlink:href="#linearGradient3034" x2="1.96202" x1="-0.405092" id="linearGradient3322" gradientTransform="translate(-1.505278e-6,3.095062e-7)"/>
  <linearGradient y2="0.474026" y1="0.474026" xlink:href="#linearGradient3012" x2="-0.342857" x1="1.228572" id="linearGradient3323"/>
  <linearGradient y2="-1.254744" y1="2.252642" xlink:href="#linearGradient3225" x2="0.937419" x1="0.966265" id="linearGradient3458"/>
  <linearGradient y2="0" y1="2.443033" xlink:href="#linearGradient3225" x2="-0.035146" x1="-0.015053" id="linearGradient3459" gradientTransform="scale(1.508278,0.663008)"/>
  <linearGradient y2="0.574627" y1="0.037315" xlink:href="#linearGradient3225" x2="-0.319998" x1="-0.373311" spreadMethod="reflect" id="svg_1"/>
  <linearGradient y2="0.65625" y1="0.585938" xlink:href="#linearGradient650" x2="-4.266665" x1="1.666662" id="svg_2"/>
  <linearGradient y2="1" y1="1" xlink:href="#linearGradient3042" x2="0.999999" x1="-0.000001" id="svg_3"/>
  <linearGradient y2="0.992188" y1="0.03125" xlink:href="#linearGradient3178" x2="0.929581" x1="0.084509" id="svg_4"/>
  <linearGradient y2="1" y1="1" xlink:href="#linearGradient3012" x2="1.000001" x1="0.000001" id="svg_5"/>
  <linearGradient y2="1.679446" y1="3.385971" xlink:href="#linearGradient3042" x2="2.378004" x1="-0.856079" id="svg_6"/>
  <linearGradient y2="1.053216" y1="-0.737763" xlink:href="#linearGradient3042" x2="3.155561" x1="-0.086846" id="svg_7" gradientTransform="scale(0.456186,-2.192088)"/>
  <linearGradient y2="0.212201" y1="1.918725" xlink:href="#linearGradient3042" x2="2.373958" x1="-0.860124" id="svg_8" gradientTransform="scale(0.999999,-1)"/>
  <linearGradient y2="0.429689" y1="0.226603" xlink:href="#linearGradient650" x2="2.406785" x1="-0.124289" id="svg_9"/>
  <linearGradient y2="1" y1="1" xlink:href="#linearGradient3012" x2="1" x1="0" id="svg_10"/>
  <linearGradient y2="2.439268" y1="0.648289" xlink:href="#linearGradient3042" x2="3.141852" x1="-0.100556" id="svg_11" gradientTransform="scale(0.456186,2.192088)"/>
  <linearGradient y2="1.62091" y1="-0.134992" xlink:href="#linearGradient3042" x2="0.921533" x1="-1.212799" id="svg_12"/>
  <linearGradient y2="1.485001" y1="0.132067" xlink:href="#linearGradient3042" x2="1.765445" x1="0.120928" id="svg_13" gradientTransform="scale(0.941732,1.061874)"/>
  <linearGradient y2="0.624187" y1="-1.131715" xlink:href="#linearGradient3042" x2="0.921533" x1="-1.212799" id="svg_14"/>
  <linearGradient y2="0.532623" y1="-0.820311" xlink:href="#linearGradient3042" x2="1.765445" x1="0.120928" id="svg_15" gradientTransform="scale(0.941732,1.061874)"/>
  <linearGradient y2="0.328125" y1="0.421876" xlink:href="#linearGradient3042" x2="2.34328" x1="-0.596998" id="svg_16"/>
  <linearGradient y2="1.201766" y1="-0.47299" xlink:href="#linearGradient3042" x2="0.675142" x1="-2.356856" id="svg_17"/>
  <linearGradient y2="0.828125" y1="0.046875" xlink:href="#linearGradient3178" x2="0.72381" x1="0.076191" id="svg_18"/>
  <linearGradient y2="1" y1="1" xlink:href="#linearGradient3042" x2="1" x1="0" id="svg_19"/>
  <linearGradient y2="0.078125" y1="0.921875" xlink:href="#linearGradient3178" x2="0.867052" x1="0.080925" id="svg_20"/>
  <linearGradient y2="1" y1="1" xlink:href="#linearGradient3178" id="svg_21"/>
  <linearGradient y2="0.546875" y1="0.59375" xlink:href="#linearGradient650" x2="1.771574" x1="0.370558" id="svg_22"/>
  <linearGradient y2="1" y1="1" xlink:href="#linearGradient3012" x2="1" x1="0" id="svg_23"/>
  <radialGradient y2="1" y1="1" xlink:href="#linearGradient3061" r="0.89979" id="svg_24" fy="0.484433" fx="0.50385" cy="0.484433" cx="0.50385"/>
  <linearGradient y2="0.574627" y1="0.037315" xlink:href="#linearGradient3225" x2="-0.319998" x1="-0.373311" spreadMethod="reflect" id="svg_25"/>
  <linearGradient y2="0.65625" y1="0.585938" xlink:href="#linearGradient650" x2="-4.266665" x1="1.666662" id="svg_26"/>
  <linearGradient y2="1" y1="1" xlink:href="#linearGradient3042" x2="0.999999" x1="-0.000001" id="svg_27"/>
  <linearGradient y2="0.992188" y1="0.03125" xlink:href="#linearGradient3178" x2="0.929581" x1="0.084509" id="svg_28"/>
  <linearGradient y2="1" y1="1" xlink:href="#linearGradient3012" x2="1.000001" x1="0.000001" id="svg_29"/>
  <linearGradient y2="1.679446" y1="3.385971" xlink:href="#linearGradient3042" x2="2.378004" x1="-0.856079" id="svg_30"/>
  <linearGradient y2="1.053216" y1="-0.737763" xlink:href="#linearGradient3042" x2="3.155561" x1="-0.086846" id="svg_31" gradientTransform="scale(0.456186,-2.192088)"/>
  <linearGradient y2="0.212201" y1="1.918725" xlink:href="#linearGradient3042" x2="2.373958" x1="-0.860124" id="svg_32" gradientTransform="scale(0.999999,-1)"/>
  <linearGradient y2="0.429689" y1="0.226603" xlink:href="#linearGradient650" x2="2.406785" x1="-0.124289" id="svg_33"/>
  <linearGradient y2="1" y1="1" xlink:href="#linearGradient3012" x2="1" x1="0" id="svg_34"/>
  <linearGradient y2="2.439268" y1="0.648289" xlink:href="#linearGradient3042" x2="3.141852" x1="-0.100556" id="svg_35" gradientTransform="scale(0.456186,2.192088)"/>
  <linearGradient y2="1.62091" y1="-0.134992" xlink:href="#linearGradient3042" x2="0.921533" x1="-1.212799" id="svg_36"/>
  <linearGradient y2="1.485001" y1="0.132067" xlink:href="#linearGradient3042" x2="1.765445" x1="0.120928" id="svg_37" gradientTransform="scale(0.941732,1.061874)"/>
  <linearGradient y2="0.624187" y1="-1.131715" xlink:href="#linearGradient3042" x2="0.921533" x1="-1.212799" id="svg_38"/>
  <linearGradient y2="0.532623" y1="-0.820311" xlink:href="#linearGradient3042" x2="1.765445" x1="0.120928" id="svg_39" gradientTransform="scale(0.941732,1.061874)"/>
  <linearGradient y2="0.328125" y1="0.421876" xlink:href="#linearGradient3042" x2="2.34328" x1="-0.596998" id="svg_40"/>
  <linearGradient y2="1.201766" y1="-0.47299" xlink:href="#linearGradient3042" x2="0.675142" x1="-2.356856" id="svg_41"/>
  <linearGradient y2="0.828125" y1="0.046875" xlink:href="#linearGradient3178" x2="0.72381" x1="0.076191" id="svg_42"/>
  <linearGradient y2="1" y1="1" xlink:href="#linearGradient3042" x2="1" x1="0" id="svg_43"/>
  <linearGradient y2="0.078125" y1="0.921875" xlink:href="#linearGradient3178" x2="0.867052" x1="0.080925" id="svg_44"/>
  <linearGradient y2="1" y1="1" xlink:href="#linearGradient3178" id="svg_45"/>
  <linearGradient y2="0.546875" y1="0.59375" xlink:href="#linearGradient650" x2="1.771574" x1="0.370558" id="svg_46"/>
  <linearGradient y2="1" y1="1" xlink:href="#linearGradient3012" x2="1" x1="0" id="svg_47"/>
  <radialGradient y2="1" y1="1" xlink:href="#linearGradient3061" r="0.89979" id="svg_48" fy="0.484433" fx="0.50385" cy="0.484433" cx="0.50385"/>
  <linearGradient y2="0.574627" y1="0.037315" xlink:href="#linearGradient3225" x2="-0.319998" x1="-0.373311" spreadMethod="reflect" id="svg_49"/>
  <linearGradient y2="0.65625" y1="0.585938" xlink:href="#linearGradient650" x2="-4.266665" x1="1.666662" id="svg_50"/>
  <linearGradient y2="1" y1="1" xlink:href="#linearGradient3042" x2="0.999999" x1="-0.000001" id="svg_51"/>
  <linearGradient y2="0.992188" y1="0.03125" xlink:href="#linearGradient3178" x2="0.929581" x1="0.084509" id="svg_52"/>
  <linearGradient y2="1" y1="1" xlink:href="#linearGradient3012" x2="1.000001" x1="0.000001" id="svg_53"/>
  <linearGradient y2="1.679446" y1="3.385971" xlink:href="#linearGradient3042" x2="2.378004" x1="-0.856079" id="svg_54"/>
  <linearGradient y2="1.053216" y1="-0.737763" xlink:href="#linearGradient3042" x2="3.155561" x1="-0.086846" id="svg_55" gradientTransform="scale(0.456186,-2.192088)"/>
  <linearGradient y2="0.212201" y1="1.918725" xlink:href="#linearGradient3042" x2="2.373958" x1="-0.860124" id="svg_56" gradientTransform="scale(0.999999,-1)"/>
  <linearGradient y2="0.429689" y1="0.226603" xlink:href="#linearGradient650" x2="2.406785" x1="-0.124289" id="svg_57"/>
  <linearGradient y2="1" y1="1" xlink:href="#linearGradient3012" x2="1" x1="0" id="svg_58"/>
  <linearGradient y2="2.439268" y1="0.648289" xlink:href="#linearGradient3042" x2="3.141852" x1="-0.100556" id="svg_59" gradientTransform="scale(0.456186,2.192088)"/>
  <linearGradient y2="1.62091" y1="-0.134992" xlink:href="#linearGradient3042" x2="0.921533" x1="-1.212799" id="svg_60"/>
  <linearGradient y2="1.485001" y1="0.132067" xlink:href="#linearGradient3042" x2="1.765445" x1="0.120928" id="svg_61" gradientTransform="scale(0.941732,1.061874)"/>
  <linearGradient y2="0.624187" y1="-1.131715" xlink:href="#linearGradient3042" x2="0.921533" x1="-1.212799" id="svg_62"/>
  <linearGradient y2="0.532623" y1="-0.820311" xlink:href="#linearGradient3042" x2="1.765445" x1="0.120928" id="svg_63" gradientTransform="scale(0.941732,1.061874)"/>
  <linearGradient y2="0.328125" y1="0.421876" xlink:href="#linearGradient3042" x2="2.34328" x1="-0.596998" id="svg_64"/>
  <linearGradient y2="1.201766" y1="-0.47299" xlink:href="#linearGradient3042" x2="0.675142" x1="-2.356856" id="svg_65"/>
  <linearGradient y2="0.828125" y1="0.046875" xlink:href="#linearGradient3178" x2="0.72381" x1="0.076191" id="svg_66"/>
  <linearGradient y2="1" y1="1" xlink:href="#linearGradient3042" x2="1" x1="0" id="svg_67"/>
  <linearGradient y2="0.078125" y1="0.921875" xlink:href="#linearGradient3178" x2="0.867052" x1="0.080925" id="svg_68"/>
  <linearGradient y2="1" y1="1" xlink:href="#linearGradient3178" id="svg_69"/>
  <linearGradient y2="0.546875" y1="0.59375" xlink:href="#linearGradient650" x2="1.771574" x1="0.370558" id="svg_70"/>
  <linearGradient y2="1" y1="1" xlink:href="#linearGradient3012" x2="1" x1="0" id="svg_71"/>
  <radialGradient y2="1" y1="1" xlink:href="#linearGradient3061" r="0.89979" id="svg_72" fy="0.484433" fx="0.50385" cy="0.484433" cx="0.50385"/>
 </defs>
 <g>
  <title>Layer 1</title>
  <g transform="matrix(0.960426,0,0,0.960426,28.08325,-63.9922) " id="g4320">
   <path fill="#007f00" fill-rule="evenodd" stroke-width="0.781433" id="path4177" d="m346.156799,1121.255981l0,0l0,0l0,0l0,0l0,0l0,0zm-0.323212,-274.513855l0,0l0,0l0,0l0,0l0,0l0,0zm273.15213,-16.174622c72.572205,0.024414 93.286255,67.755981 93.286255,153.345825l0,0l0,0l0,0c0,85.589722 -17.860352,144.002686 -87.206543,152.344727c-27.634949,3.130981 -44.877747,0.735962 -68.798401,1.48999c-34.911255,-0.43103 -49.780914,0.753906 -68.566742,-3.713989c-20.341187,-4.179077 -76.231201,2.656982 -191.433899,3.707886c0,-3.199951 0,0 -0.461487,-0.218994c-14.171814,0.558105 -171.532799,-3.654907 -203.890778,-5.026001c0,0 0,0 -2.382904,-1.110962c-73.029959,-2.859985 -78.60141,-69.131958 -80.751679,-72.703979c-14.02549,-43.074036 -13.86936,-56.091003 -13.86936,-74.156616c0,-18.065491 -0.15613,-31.968872 13.76315,-74.904663c2.04406,-3.433105 7.504681,-70.148254 81.61529,-73.120422c33.438583,-1.483215 191.021286,-6.583618 205.92247,-6.079407c115.932312,0.996582 172.154816,7.057373 192.071014,2.736328c18.360809,-4.608948 33.230591,-3.423706 68.141785,-3.854736c23.920715,0.754211 35.732117,-1.752014 62.561829,1.265015l0,0z"/>
   <path fill="url(#linearGradient3126)" fill-rule="evenodd" stroke="url(#linearGradient3125)" stroke-width="0.781433" id="path4178" d="m249.692902,983.256226c0.457001,19.842773 1.270691,104.971802 51.65741,126.000732c-25.447906,9.600098 -176.15361,1.829102 -264.230522,-31.085938c-15.899469,-28.343018 -21.028599,-73.70105 -21.257169,-93.857605c-0.22858,-20.156738 4.900559,-65.514832 20.800031,-93.857788c88.07695,-32.914612 238.782661,-40.686157 264.230537,-31.085999c-50.386688,21.028748 -51.200287,106.158447 -51.200287,123.886597l0,0z"/>
   <path fill="url(#linearGradient3267)" fill-rule="evenodd" stroke="url(#linearGradient3268)" stroke-width="0.781433" id="path4179" d="m547.244812,886.284607l-61.000916,-21.558533l0.932007,-9.765564l15.971802,1.926086l49.241821,18.373779l-4.899719,0.244995l-0.244995,10.779236l0,0l0,0l0,0z"/>
   <path fill="url(#linearGradient3045)" fill-rule="evenodd" stroke="url(#linearGradient3071)" stroke-width="0.781433" id="path4180" d="m319.023895,855.125488c-3.292297,0 -16.593689,-14.367004 -18.43811,-16.819885c-2.627075,-3.870728 -4.571472,-4.571594 -4.571472,-7.77179c115.202698,1.050598 174.861176,7.222107 194.518677,3.200073c8.914398,3.428711 5.485809,7.543213 3.657196,24.457886c-2.742798,2.378113 -19.336487,-0.228577 -22.628998,-0.228577c-53.944092,0 -93.259399,-2.514404 -147.203583,-2.514404l-5.33371,-0.323303l0,0z"/>
   <path fill="url(#linearGradient3458)" fill-rule="evenodd" stroke="url(#linearGradient3055)" stroke-width="0.781433" id="path4181" d="m319.185486,855.125488c-3.292297,0 -16.545074,-14.540161 -18.599701,-16.819885c-3.112,-3.224182 165.261108,1.736084 194.976013,1.371216c1.599915,4.343079 0.457001,1.600281 -1.371613,18.514954c-2.742798,2.378113 -19.336487,-0.228577 -22.628998,-0.228577c-53.944092,0 -93.259399,-2.514404 -147.203583,-2.514404l0,0l-5.172119,-0.323303l0,0z"/>
   <path fill="url(#linearGradient3047)" fill-rule="evenodd" stroke="url(#linearGradient3104)" stroke-width="0.781433" id="path4182" d="m464.216614,842.817322c-1.4328,0 -9.051208,-0.830139 -9.051208,-2.262695l0,-0.970032c0,-1.432617 1.476501,-2.262817 2.90918,-2.262817l29.093201,0.323303c1.432709,0 2.90921,0.506897 2.90921,1.939514l0,0.970032c0,1.432556 -3.415985,2.262695 -4.848602,2.262695l-21.01178,0l0,0z"/>
   <path fill="url(#linearGradient3173)" fill-rule="evenodd" stroke="url(#linearGradient3172)" stroke-width="0.781433" id="path4183" d="m358.366089,862.760071c-1.970001,0 -33.800476,-5.12616 -31.830475,-5.12616c40.515076,0 117.152771,-1.334839 156.455292,0.701965c2.936798,0.128052 3.675201,3.57605 3.2323,5.4953c-1.939392,8.728027 -5.472717,7.934631 -7.434692,7.758301c-39.545319,-3.879089 -75.203705,11.724426 -110.365112,-4.257751l-10.057312,-4.571655l0,0z"/>
   <path fill="url(#linearGradient3046)" fill-rule="evenodd" stroke="url(#linearGradient3073)" stroke-width="0.781433" id="path4184" d="m493.950195,854.44873c26.829895,0.754272 55.922607,-2.047241 82.429321,14.546387c22.358276,-9.589905 70.253784,9.266602 103.925964,17.77887c-2.154968,-8.404602 -11.260071,-15.677795 -7.9198,-24.243958c1.077515,-0.700317 1.670105,-2.855347 5.172119,-0.646545c-6.249512,-11.637085 -31.571228,-20.041687 -49.781006,-29.092773c-26.829895,-3.017029 -47.841309,-1.508423 -71.762024,-2.262634c-34.911194,0.43103 -49.780975,-0.75415 -67.883057,3.555847c5.818573,1.61615 9.374298,5.171997 5.818481,20.364807l0,0l0,0l0,0z"/>
   <path fill="url(#linearGradient3459)" fill-rule="evenodd" stroke="url(#linearGradient3056)" stroke-width="0.781433" id="path4185" d="m493.950195,854.44873c26.829895,0.754272 55.922607,-2.047241 82.429321,14.546387c22.358276,-9.589905 70.253784,9.266602 103.925964,17.77887c-2.154968,-8.404602 -6.411377,-13.738281 -11.475586,-19.718506c-23.166504,-8.781555 -85.01532,-24.135986 -108.935974,-24.890259c-24.405518,-0.215515 -56.650208,-2.424438 -65.337524,-2.990112c1.436218,2.872498 1.171692,7.677185 -0.606201,15.273621l0,0l0,0l0,0l0,0l0,0l0,0l0,0l0,0z"/>
   <path fill="url(#linearGradient3174)" fill-rule="evenodd" stroke="url(#linearGradient3175)" stroke-width="0.781433" id="path4186" d="m368.880493,866.417297c-1.969879,0 -12.314178,-9.697815 -10.344299,-9.697815c40.515198,0 85.152191,-0.42041 124.454712,1.616394c2.936798,0.128052 3.675201,3.57605 3.2323,5.4953c-1.939392,8.728027 -5.472717,7.934631 -7.434692,7.758301c-39.545319,-3.879089 -69.392914,-5.17218 -109.90802,-5.17218l0,0z"/>
   <path fill="url(#linearGradient3270)" fill-rule="evenodd" stroke="url(#linearGradient3272)" stroke-width="0.781433" id="path4187" d="m491.388611,875.015381l0,-4.164673l13.718903,0l-0.244904,-5.8797l-17.393799,0c0,0 -1.959717,9.799377 3.9198,10.044373z"/>
   <path fill="url(#linearGradient3269)" fill-rule="evenodd" stroke="url(#linearGradient3271)" stroke-width="0.781433" id="path4188" d="m487.713806,865.216003l4.654694,0.244995l0.244995,-2.204773l10.779205,0l1.224915,-4.899719l-2.449921,-1.9599l-6.369385,0l-0.490021,3.42981l-7.839478,0.48999l0.244995,4.899597z"/>
   <path fill="url(#linearGradient3265)" fill-rule="evenodd" stroke="url(#linearGradient3266)" stroke-width="0.781433" id="path4189" d="m498.95459,855.129395l54.048096,20.441284l29.795837,2.425293l-13.165527,-10.047485l-36.378723,-11.086792l-34.299683,-1.7323z"/>
   <path fill="url(#linearGradient3140)" fill-rule="evenodd" stroke="url(#linearGradient3144)" stroke-width="0.781433" id="path4190" d="m304.699402,863.218811l-3.657196,-3.885681l17.371704,-4.343018l72.458588,18.514709l-2.971405,8.000061c-27.276703,-10.209656 -55.010681,-13.790771 -83.201691,-18.286072l0,0z"/>
   <path fill="url(#linearGradient3112)" fill-rule="evenodd" stroke="url(#linearGradient3113)" stroke-width="0.781433" id="path4191" d="m324.357605,855.448792c-3.292297,0 20.569489,-3.434692 33.600983,-3.428589c4.480499,0.080688 101.716705,0.364624 136.23172,2.285522c0.685699,0.914368 0.457001,2.971802 -0.000122,3.886047c-2.742798,2.378113 -19.336487,-0.228577 -22.628998,-0.228577c-53.944092,0 -93.259399,-2.514404 -147.203583,-2.514404l0,0l0,0l0,0z"/>
   <path fill="url(#linearGradient3102)" fill-rule="evenodd" stroke="url(#linearGradient3103)" stroke-width="0.781433" id="path4192" d="m318.912689,854.939575c16.270599,-1.670166 24.979004,-1.425476 26.992004,-7.919861c8.40921,-28.17334 8.512512,-31.355896 29.093109,-31.032593l-12.606995,35.234985c-3.124817,-0.107727 -6.572906,0.107666 -7.434906,3.555786l12.606995,11.96051l-48.650208,-11.798828l0,0z"/>
   <path fill="url(#linearGradient3100)" fill-rule="evenodd" stroke="url(#linearGradient3101)" stroke-width="0.781433" id="path4193" d="m345.904694,847.019714c8.40921,-28.17334 8.512512,-31.355896 29.093109,-31.032593l-12.606995,35.234985c-3.124817,-0.107727 -6.572906,0.107666 -7.434906,3.555786c0,0 -11.064209,-1.263794 -9.051208,-7.758179l0,0z"/>
   <path fill="url(#linearGradient3267)" fill-rule="evenodd" stroke="url(#linearGradient3268)" stroke-width="0.781433" id="path4194" d="m547.557495,1082.240967l-61.000885,21.559082l0.931885,9.765991l15.971802,-1.926025l49.241791,-18.374023l-4.899658,-0.244995l-0.244934,-10.780029l0,0l0,0l0,0z"/>
   <rect fill="url(#linearGradient3257)" fill-rule="evenodd" y="950.24898" x="391.60181" width="157.332281" id="rect4195" height="72.920879"/>
   <path fill="url(#linearGradient3235)" fill-rule="evenodd" stroke="url(#linearGradient3234)" stroke-width="0.781433" id="path4196" d="m397.699097,967.650818l38.707397,2.694763c4.164795,-0.735107 -2.939697,-2.93988 18.618805,-2.694885c2.939789,0 32.337891,-1.224915 38.462494,-1.46991c18.292114,-2.449768 31.929626,-8.819397 49.731689,-10.289307c1.143311,-25.233398 1.551514,-45.812073 4.164734,-71.290405l-41.89212,-15.43396l-114.162689,-0.244995l8.819489,10.534302l-2.449799,88.194397l0,0z"/>
   <path fill="url(#linearGradient3214)" fill-rule="evenodd" stroke="url(#linearGradient3213)" stroke-width="0.781433" id="path4197" d="m397.696289,964.952026c0,0 50.466522,1.9599 61.245697,1.469788c10.779205,-0.48999 57.325836,-5.389709 59.285614,-28.90802c1.9599,-23.518188 1.46991,-33.317566 1.46991,-33.317566c0.97998,-18.618652 -31.847595,-28.907898 -50.466217,-28.417908c-18.618805,0.489868 -9.799286,10.779175 -9.799286,10.779175l-61.735718,78.394531l0,0z"/>
   <path fill="url(#linearGradient3032)" fill-rule="evenodd" stroke="url(#linearGradient3098)" stroke-width="0.781433" id="path4198" d="m15.86262,984.351624c-0.22858,20.156372 4.900559,65.514343 20.800031,93.857361c-5.666241,0.265991 -24.021151,-13.296997 -27.989171,-19.66394c-13.85925,-42.687073 -13.70311,-56.70105 -13.70311,-74.429138m20.892251,0.19751c-0.22858,-20.156799 4.900559,-65.514893 20.800031,-93.85791c-5.666241,-0.266113 -24.021151,13.297119 -27.989171,19.664673c-13.85925,42.686707 -13.70311,56.700928 -13.70311,74.428833l0,0"/>
   <path fill="url(#linearGradient3090)" fill-rule="evenodd" stroke="url(#linearGradient3091)" stroke-width="0.781433" id="path4199" d="m249.692902,983.256226c0.457001,19.842773 1.270691,104.971802 51.65741,126.000732c1.066681,0.914063 7.620483,-2.74292 3.201996,-4.570923c-46.528503,-21.486084 -46.171906,-102.044006 -46.400421,-122.201111c-0.228577,-20.156799 0.32901,-89.743835 45.0289,-119.458313c5.790009,-5.942688 -3.049377,-3.656921 -2.287598,-3.656982c-50.386688,21.028748 -51.200287,106.158447 -51.200287,123.886597l0,0l0,0l0,0z"/>
   <rect fill="none" fill-rule="evenodd" stroke="url(#linearGradient3139)" stroke-width="0.781433" y="940.811984" x="209.477492" width="5.818563" id="rect4200" height="4.202278"/>
   <rect fill="none" fill-rule="evenodd" stroke="url(#linearGradient3138)" stroke-width="0.781431" y="1022.91664" x="209.476805" width="5.818552" id="rect4201" height="4.202267"/>
   <path fill="none" fill-rule="evenodd" stroke="url(#linearGradient3038)" stroke-width="0.976792" stroke-linecap="square" stroke-linejoin="round" id="path4202" d="m10.0298,920.121094c-0.62555,0 -2.529561,3.636292 -2.839651,5.052124c-2.95184,8.371582 -3.85098,14.41571 -5.35426,23.061096c-0.64728,6.28717 -4.86453,31.432007 -5.07806,33.172058c0.1319,1.056702 0.96698,-0.353088 1.08288,-0.533875c2.77889,-4.337524 2.59108,-9.843811 3.617,-14.813171c1.4851,-7.355225 2.91473,-18.596924 5.35751,-28.409729c2.61057,-10.648376 6.72564,-22.067505 2.56802,-21.406006"/>
   <path fill="none" fill-rule="evenodd" stroke="url(#linearGradient3039)" stroke-width="0.976792" stroke-linecap="square" stroke-linejoin="round" id="path4203" d="m10.0298,1048.062988c-0.62555,0 -2.529561,-3.635986 -2.839651,-5.052002c-2.95184,-8.371948 -3.85098,-14.416016 -5.35426,-23.060974c-0.64728,-6.286987 -4.86453,-31.432129 -5.07806,-33.172241c0.1319,-1.05658 0.96698,0.35321 1.08288,0.534058c2.77889,4.337463 2.59108,9.84375 3.617,14.813171c1.4851,7.35498 2.91473,18.596985 5.35751,28.410034c2.61057,10.647949 6.72564,22.067017 2.56802,21.406006"/>
   <path fill="url(#linearGradient3040)" fill-rule="evenodd" stroke="url(#linearGradient3099)" stroke-width="0.781433" id="path4204" d="m36.662621,1078.208984c4.278481,10.801025 10.92498,35.797974 52.928749,53.427002c-73.029909,-2.859985 -78.933889,-69.907959 -80.9179,-73.090942"/>
   <path fill="url(#linearGradient3033)" fill-rule="evenodd" stroke="#ffff00" stroke-width="0.781433" id="path4205" d="m36.662621,1078.208984c4.278481,10.801025 10.92498,35.797974 52.928749,53.427002c-62.68577,-18.052979 -67.619989,-59.23999 -69.60401,-62.42395"/>
   <path fill="url(#radialGradient3037)" fill-rule="evenodd" id="path4206" d="m34.435421,1096.21582c0.00275,-2.813721 -2.277489,-5.096191 -5.091248,-5.096191c-2.813759,0 -5.093988,2.282471 -5.091246,5.096191c-0.002743,2.813721 2.277487,5.096191 5.091246,5.096191c2.81377,0 5.094006,-2.282471 5.091255,-5.096191l-0.000008,0z"/>
   <path fill="url(#linearGradient3041)" fill-rule="evenodd" stroke="url(#linearGradient3069)" stroke-width="0.781433" id="path4207" d="m318.7229,1113.545044c-9.600311,-2.557983 -15.644012,-3.831055 -17.372711,-4.288086c-25.447876,9.600098 -176.153587,1.829102 -264.230431,-31.085938c7.415352,27.657959 29.406693,44.975952 54.854591,54.575928c32.357948,1.371094 189.719254,5.585083 203.890945,5.0271c5.485809,-9.143066 14.171692,-17.37207 22.857605,-24.229004l0,0z"/>
   <path fill="url(#linearGradient3031)" fill-rule="evenodd" stroke="url(#linearGradient3068)" stroke-width="0.781433" id="path4208" d="m318.7229,1113.545044c-9.600311,-2.557983 -15.644012,-3.831055 -17.372711,-4.288086c-25.447876,9.600098 -176.153587,1.829102 -264.230431,-31.085938c2.386673,4.801025 4.720432,14.803955 10.967911,22.11792c64.815834,23.315063 148.118233,27.071045 252.806435,30.170044c8.685791,-8.686035 9.142883,-10.057007 17.828796,-16.91394l0,0l0,0z"/>
   <path fill="url(#linearGradient3045)" fill-rule="evenodd" stroke="url(#linearGradient3071)" stroke-width="0.781433" id="path4209" d="m319.336395,1113.401001c-3.292297,0 -16.593689,14.366943 -18.437988,16.819946c-2.627106,3.869995 -4.571594,4.571045 -4.571594,7.770996c115.202698,-1.049927 174.861298,-7.221924 194.518799,-3.199951c8.914398,-3.427979 5.485901,-7.542969 3.657196,-24.458008c-2.742798,-2.37793 -19.336609,0.229004 -22.628998,0.229004c-53.944214,0 -93.259399,2.514038 -147.203613,2.514038l-5.333801,0.323975l0,0z"/>
   <path fill="url(#linearGradient3133)" fill-rule="evenodd" stroke="url(#linearGradient3132)" stroke-width="0.781433" id="path4210" d="m36.339371,890.289429c4.278469,-10.800537 10.92498,-35.797546 52.928741,-53.427002c-73.029902,2.860291 -78.933882,69.907898 -80.917892,73.091675"/>
   <path fill="url(#linearGradient3134)" fill-rule="evenodd" stroke="#ffff00" stroke-width="0.781433" id="path4211" d="m36.339371,890.289429c4.278469,-10.800537 10.92498,-35.797546 52.928741,-53.427002c-62.685762,18.053162 -67.619991,59.240479 -69.604002,62.424377"/>
   <path fill="url(#svg_72)" fill-rule="evenodd" id="path4212" d="m34.11216,872.282593c0.002754,2.813782 -2.277485,5.096252 -5.091246,5.096252c-2.813759,0 -5.09399,-2.282471 -5.091248,-5.096252c-0.002743,-2.813782 2.277489,-5.096191 5.091248,-5.096191c2.813768,0 5.094004,2.28241 5.091257,5.096191l-0.000011,0z"/>
   <path fill="url(#linearGradient3130)" fill-rule="evenodd" stroke="url(#linearGradient3131)" stroke-width="0.781433" id="path4213" d="m318.399689,854.954102c-9.600281,2.557922 -15.644073,3.830078 -17.372803,4.287476c-25.447876,-9.599976 -176.153488,-1.828552 -264.230385,31.085999c7.415359,-27.658203 29.406693,-44.975769 54.854591,-54.575806c32.35791,-1.371155 189.719208,-5.5849 203.891022,-5.026794c5.485779,9.143127 14.1716,17.371826 22.857574,24.229126l0,0z"/>
   <path fill="url(#linearGradient3128)" fill-rule="evenodd" stroke="url(#linearGradient3127)" stroke-width="0.781433" id="path4214" d="m318.399689,854.954102c-9.600281,2.557922 -15.644073,3.830078 -17.372803,4.287476c-25.447876,-9.599976 -176.153488,-1.828552 -264.230385,31.085999c2.386669,-4.800476 4.72044,-14.80365 10.967918,-22.117859c64.815781,-23.314636 148.118179,-27.071106 252.806381,-30.170227c8.685913,8.685913 9.142914,10.057312 17.828888,16.914612l0,0l0,0z"/>
   <path fill="url(#linearGradient3065)" fill-rule="evenodd" stroke="url(#linearGradient3081)" stroke-width="0.781433" id="path4215" d="m317.810486,870.79187c-9.932983,0 -17.828888,4.238647 -26.514679,21.943115c-19.657501,31.69574 -22.857513,144.764038 0,181.489014c10.057281,23.646973 20.696106,23.313965 31.08609,22.400024l19.439392,-3.625c1.349396,-11.148071 2.439209,-22.63208 3.301117,-34.229004c0.861694,-11.598022 -0.894501,-19.947998 -5.610107,-32.394043c10.494415,-10.457947 8.220886,-25.605957 8.296692,-36.764771c0.075897,-11.158508 -0.013306,-21.984619 -0.235779,-32.255676c-0.890198,-41.084045 -3.914703,-73.285217 -7.054504,-82.3479l-22.708221,-4.215759l0,0l0,0l0,0l0,0l0,0l0,0z"/>
   <path fill="url(#linearGradient3096)" fill-rule="evenodd" stroke="url(#linearGradient3097)" stroke-width="0.781433" id="path4216" d="m374.665405,1046.186035c0,8.211914 -2.026215,14.869019 -4.525604,14.869019c-2.499512,0 -19.718811,2.716919 -20.042114,-16.486084c1.292999,-19.203003 17.542603,-13.25293 20.042114,-13.25293c2.49939,0 4.525604,6.656982 4.525604,14.869995l0,0z"/>
   <path fill="url(#linearGradient3094)" fill-rule="evenodd" stroke="url(#linearGradient3095)" id="path4217" d="m374.665253,1046.185669c0,-8.212524 -2.026184,-14.869995 -4.525604,-14.869995c-2.499451,0 -4.525635,6.657471 -4.525635,14.869995c0,8.212402 2.026184,14.869873 4.525635,14.869873c2.49942,0 4.525604,-6.657471 4.525604,-14.869873l0,0z"/>
   <path fill="#000080" fill-rule="evenodd" id="path4218" d="m374.665192,1046.024048c0,-3.838379 -1.374939,-6.950073 -3.070953,-6.950073c-1.696075,0 -3.070953,3.111694 -3.070953,6.950073c0,3.838379 1.374878,6.950073 3.070953,6.950073c1.696014,0 3.070953,-3.111694 3.070953,-6.950073l0,0z"/>
   <path fill="url(#linearGradient3084)" fill-rule="evenodd" stroke="url(#linearGradient3089)" stroke-width="0.781433" id="path4219" d="m339.422699,1025.348022l18.910309,7.110962l-0.484894,22.466064l-16.809021,6.303955l-7.596497,-18.587036l5.980103,-17.293945z"/>
   <path fill="#007f00" fill-rule="evenodd" id="path4220" d="m13.585862,983.958496c0,-4.552551 -3.184005,-8.243103 -7.111682,-8.243103c-3.92767,0 -7.111681,3.690552 -7.111681,8.243103c0,4.552551 3.184011,8.243103 7.111681,8.243103c3.927677,0 7.111682,-3.690552 7.111682,-8.243103z"/>
   <path fill="url(#linearGradient3086)" fill-rule="evenodd" stroke="url(#linearGradient3088)" stroke-width="0.781433" id="path4221" d="m340.399902,1044.407959c0,13.300049 -3.752899,19.234009 -13.09201,23.759033c-9.015686,0 -20.526794,-10.135986 -20.526794,-23.436035c0,-13.300903 13.127411,-21.496948 22.143188,-21.496948c6.106415,2.262939 11.475616,7.873047 11.475616,21.17395l0,0z"/>
   <path fill="url(#linearGradient3082)" fill-rule="evenodd" stroke="url(#linearGradient3083)" stroke-width="0.781433" id="path4222" d="m302.902008,1044.730957c-0.228607,11.450073 14.230194,29.185059 23.705292,27.809082c4.975311,-0.706055 2.855804,-4.807007 0.700592,-4.373047c-9.015686,0 -20.526794,-10.135986 -20.526794,-23.436035c0,-13.300903 13.127411,-21.496948 22.143188,-21.496948c2.367401,-1.382996 2.990906,-4.700012 0.707611,-4.820007c-14.237183,-0.731995 -26.272797,16.466003 -26.729889,26.316956l0,0l0,0l0,0z"/>
   <path fill="url(#linearGradient3085)" fill-rule="evenodd" stroke="url(#linearGradient3087)" stroke-width="0.781433" id="path4223" d="m340.399902,1044.407959c0,13.300049 -3.752899,19.234009 -13.09201,23.759033c12.64212,0.646973 14.707703,-1.245972 14.869293,-23.598022c-0.161591,-22.835999 -4.328278,-23.597961 -13.252899,-21.334961c6.106415,2.262939 11.475616,7.873047 11.475616,21.17395l0,0l0,0l0,0z"/>
   <path fill="url(#linearGradient3092)" fill-rule="evenodd" stroke="url(#linearGradient3093)" stroke-width="0.781433" id="path4224" d="m360.595703,1045.469971c0.565704,4.469971 2.473999,52.748047 13.272186,10.190063c0.007202,1.843018 0.252197,9.411011 -0.17038,12.213013c-0.845215,5.604004 -3.067505,8.951904 -7.444916,8.871948c-8.7547,-0.161987 -10.990509,-13.071045 -10.990509,-30.790039c0,-17.718994 4.498627,-32.243958 15.677704,-32.567932l0.090912,2.931946c-8.806213,3.393005 -10.434998,20.291992 -10.434998,29.151001l0,0l0,0l0,0l0,0l0,0z"/>
   <path fill="url(#linearGradient3066)" fill-rule="evenodd" stroke="url(#linearGradient3106)" stroke-width="0.781433" id="path4225" d="m366.298309,962.272217l0.413696,42.802795c7.886597,0.031982 0.908905,26.123962 8.699402,65.949036l-1.828613,-161.831665c-2.751404,25.451294 0.638916,52.842102 -7.284485,53.079834l0,0z"/>
   <path fill="url(#linearGradient3067)" fill-rule="evenodd" stroke="url(#linearGradient3105)" stroke-width="0.781433" id="path4226" d="m347.828491,958.270691l0,51.07428l21.65802,-5.81897l0,-40.083191l-21.65802,-5.172119l0,0z"/>
   <path fill-rule="evenodd" stroke="url(#linearGradient3078)" stroke-width="0.781433" id="path4227" d="m348.151001,974.111572c-2.68631,0 -4.848816,2.162537 -4.848816,4.848938c0,3.232361 0,6.464966 0,9.69751c0,2.686096 2.162506,4.848755 4.848816,4.848755c5.387512,0 12.930084,-2.809082 16.809113,-5.171997c2.6922,-1.789063 2.451782,-7.591003 0,-9.697571c-3.879028,-3.009583 -11.4216,-4.525635 -16.809113,-4.525635l0,0l0,0z"/>
   <path fill="url(#linearGradient3080)" fill-rule="evenodd" stroke="url(#linearGradient3079)" stroke-width="0.781433" id="path4228" d="m361.080994,1000.780029c0.565704,1.777954 3.555908,5.009949 4.848907,5.009949c1.432587,0 1.45459,-0.990967 1.45459,-2.42395c0,-12.499207 0,-24.998352 0,-37.497437c0,-1.432495 0.083496,-3.380493 -1.45459,-2.74762c-1.742004,0.85321 -3.673798,1.855103 -4.606506,3.555908c-1.170197,2.2146 -0.731995,32.756592 -0.242401,34.103149l0,0z"/>
   <path fill="none" fill-rule="evenodd" stroke="url(#linearGradient3064)" stroke-width="0.781433" id="path4229" d="m286.723114,982.976685c2.139099,-99.597412 29.445679,-97.532898 53.486389,-105.601257c-6.470398,8.036194 -5.105804,71.015259 -5.028595,106.515503c0.075195,34.596069 -3.858215,107.695129 5.485687,103.77301c-29.609711,0.295044 -55.636688,-25.393921 -53.943481,-104.687256l0,0z"/>
   <path fill="url(#linearGradient3077)" fill-rule="evenodd" stroke="url(#linearGradient3075)" stroke-width="0.781433" id="path4230" d="m283.453613,967.695923c0.000092,2.919495 3.339783,8.547302 3.958679,-1.496094c0.352203,-5.456238 0.738007,-10.545959 1.237213,-15.291504c0.998383,-9.491028 2.15918,-17.654907 3.952606,-24.581238c3.464996,-13.824158 11.591675,-25.378967 9.793884,-26.769409c-4.746704,-3.972778 -18.943207,40.312317 -18.942383,68.138245l0,0z"/>
   <path fill="url(#linearGradient3076)" fill-rule="evenodd" stroke="url(#linearGradient3074)" stroke-width="0.781433" id="path4231" d="m282.99649,999.536987c0,-2.919373 3.339722,-8.54718 3.958618,1.496033c0.352203,5.455994 0.738098,10.545959 1.237305,15.291992c0.998291,9.491028 2.159088,17.653992 3.952484,24.580994c3.465088,13.823975 11.591705,25.379028 9.794006,26.769043c-4.746796,3.9729 -18.943207,-40.312012 -18.942413,-68.138062l0,0z"/>
   <path fill="none" fill-rule="evenodd" stroke="url(#linearGradient3318)" stroke-width="0.781433" id="path4232" d="m678.197021,860.643921c0,0 -3.87915,-2.262939 -5.495422,0.969666c-1.616211,3.232605 -1.939514,3.232605 9.051086,27.799927c5.495422,12.283569 8.970337,19.637695 12.72821,28.042358c3.111206,17.132507 5.212402,52.771301 5.374023,66.671204c-0.161621,13.899902 -2.262817,49.53894 -5.374207,66.670898c-3.757813,8.405029 -7.232727,15.759033 -12.728027,28.042969c-10.990662,24.567017 -10.667358,24.567017 -9.051208,27.800049c1.616394,3.232056 5.495422,0.968994 5.495422,0.968994"/>
   <path fill="url(#linearGradient3060)" fill-rule="evenodd" stroke="url(#linearGradient3176)" stroke-width="0.781433" id="path4233" d="m712.332581,984.163696c0,85.590332 -17.546997,143.689331 -91.417908,152.231323c15.510315,-1.880981 55.205627,-23.073975 57.71283,-28.945068c11.451477,-25.380005 22.063904,-79.497925 22.063904,-122.293274c0,-42.794861 -8.082825,-100.777466 -22.298706,-124.00177c-8.267883,-12.681335 -27.702271,-19.053101 -50.423401,-29.398926c66.470581,4.729309 84.363281,66.81781 84.363281,152.407715l0,0l0,0l0,0l0,0z"/>
   <path fill="none" fill-rule="evenodd" stroke="url(#linearGradient3319)" stroke-width="0.781433" id="path4234" d="m576.101501,866.675903c18.59082,-7.009583 68.267822,8.380981 102.401794,17.371704c28.64801,67.048889 22.095581,135.01239 0.914307,198.403442c-34.133972,9.599976 -79.239624,28.342896 -102.401917,16.458008c29.714905,-18.896118 24.8396,-78.06604 24.686218,-117.031128c-0.151306,-38.445923 4.876282,-90.51593 -25.600403,-115.202026c0,0 0,0 0,0l0,0z"/>
   <path fill="url(#linearGradient3046)" fill-rule="evenodd" stroke="url(#linearGradient3073)" stroke-width="0.781433" id="path4235" d="m494.262787,1114.077026c26.829987,-0.754028 55.922638,2.047974 82.429291,-14.546021c22.358398,9.589966 70.253845,-9.266968 103.926147,-17.779053c-2.155151,8.405029 -11.260254,15.678101 -7.919922,24.244019c1.077576,0.700073 1.670105,2.85498 5.172119,0.646973c-6.249512,11.637085 -31.571106,20.041016 -49.781006,29.092041c-26.829895,3.016968 -47.841309,1.509033 -71.762024,2.263062c-34.911194,-0.43103 -49.780884,0.753906 -67.882996,-3.55603c5.818512,-1.615967 9.374298,-5.171997 5.81839,-20.36499l0,0l0,0l0,0z"/>
   <path fill="url(#linearGradient653)" fill-rule="evenodd" stroke="url(#linearGradient3072)" stroke-width="0.781433" id="path4236" d="m494.262787,1114.077026c26.829987,-0.754028 55.922638,2.047974 82.429291,-14.546021c22.358398,9.589966 70.253845,-9.266968 103.926147,-17.779053c-2.155151,8.405029 -6.411499,13.738037 -11.475708,19.718994c-23.166443,8.781006 -85.01532,24.136108 -108.936035,24.890015c-24.405396,0.215088 -56.650177,2.424072 -65.337494,2.98999c1.436218,-2.872925 1.171814,-7.677002 -0.606201,-15.273926l0,0l0,0l0,0l0,0l0,0l0,0l0,0l0,0z"/>
   <path fill="url(#linearGradient3237)" fill-rule="evenodd" stroke="url(#linearGradient3236)" stroke-width="0.781433" id="path4237" d="m576.101501,866.675903c12.287292,-3.615479 16.223816,-2.609619 25.46698,-0.73053c19.597046,68.341797 12.398132,169.276672 0.267822,234.607605c-7.627014,3.458984 -13.618713,4.583984 -24.820618,-1.643921c29.714905,-18.896118 24.8396,-78.06604 24.686218,-117.031128c-0.151306,-38.445923 4.876282,-90.51593 -25.600403,-115.202026c0,0 0,0 0,0l0,0l0,0z"/>
   <path fill="url(#linearGradient3270)" fill-rule="evenodd" stroke="url(#linearGradient3272)" stroke-width="0.781433" id="path4238" d="m491.701202,1093.510986l0,4.164063l13.718994,0l-0.244995,5.880005l-17.393707,0c0,0 -1.9599,-9.799072 3.919708,-10.044067z"/>
   <path fill="url(#linearGradient3269)" fill-rule="evenodd" stroke="url(#linearGradient3271)" stroke-width="0.781433" id="path4239" d="m488.026398,1103.310059l4.654694,-0.245117l0.244995,2.205078l10.779205,0l1.224915,4.900024l-2.449799,1.958984l-6.369507,0l-0.489899,-3.429077l-7.839508,-0.48999l0.244904,-4.899902z"/>
   <path fill="url(#linearGradient3177)" fill-rule="evenodd" stroke="url(#linearGradient3212)" stroke-width="0.781428" id="path4240" d="m467.474915,920.541992l0.457184,-25.600464l-10.057404,-11.428833c0,0 -31.543488,-6.400208 -40.229401,-6.400208c-8.685883,0 -17.371887,2.285828 -17.371887,2.285828c0,0 0,0 -2.74292,85.033508c0,0 4.000122,-1.94281 5.657318,-4.114319c2.831787,1.826904 10.114502,1.371399 14.457489,1.371399c8.685913,0 40.229401,-6.400085 40.229401,-6.400085l10.057404,-11.428711l-0.457184,-25.600098"/>
   <path fill="url(#linearGradient3220)" fill-rule="evenodd" stroke="url(#linearGradient3215)" stroke-width="0.781433" id="path4241" d="m505.610992,938.248779c-3.257202,0 -4.532104,-6.1745 -4.532104,-9.431763c0,-9.145996 0,-9.35022 0,-18.496338c0,-3.257202 1.152313,-9.431763 4.409607,-9.431763c2.939819,0 5.8797,0 8.819427,0c3.257263,0 5.879578,2.009888 5.879578,5.26709c-4.164673,1.551575 -6.124573,22.33429 0,27.438171c0.027893,3.422241 -2.499695,4.654602 -5.75708,4.654602l-8.819427,0l0,0l0,0z"/>
   <path fill="none" fill-rule="evenodd" stroke="url(#linearGradient3208)" stroke-width="0.781433" id="path4242" d="m403.245392,952.543518l0,-32.686523l37.486603,0l0,26.74353c-12.724091,1.295288 -25.676788,2.361877 -37.486603,5.942993l0,0z"/>
   <path fill="none" fill-rule="evenodd" stroke="url(#linearGradient3206)" stroke-width="0.781433" id="path4243" d="m440.50351,946.371887l0,-26.743408l26.972076,0l0.228516,25.829041l-27.200592,0.914368l0,0z"/>
   <path fill="none" fill-rule="evenodd" stroke="url(#linearGradient3207)" stroke-width="0.781433" id="path4244" d="m403.245392,886.801025l0,32.686462l37.486603,0l0,-26.743469c-12.724091,-1.295288 -25.676788,-2.361938 -37.486603,-5.942993l0,0z"/>
   <path fill="none" fill-rule="evenodd" stroke="url(#linearGradient3209)" stroke-width="0.781433" id="path4245" d="m440.50351,892.972595l0,26.743408l26.972076,0l0.228516,-25.828979l-27.200592,-0.914429l0,0z"/>
   <path fill="none" fill-rule="evenodd" stroke="url(#linearGradient3217)" stroke-width="0.781433" id="path4246" d="m467.213501,894.812317c5.774292,0.230957 11.548584,0.461975 17.322906,0.692871c4.850494,-1.61676 8.661499,-4.27301 12.472595,-7.968567c-12.357117,-5.774414 -25.060608,-7.737549 -39.149902,-7.968506c-0.346497,6.467285 3.811005,10.855774 9.354401,15.244202l0,0z"/>
   <path fill="url(#linearGradient3231)" fill-rule="evenodd" stroke="url(#linearGradient3230)" stroke-width="0.781433" id="path4247" d="m537.5849,902.974915l2.449829,-13.229126l-23.518555,-0.734985l7.104614,17.148926l13.964111,-3.184814z"/>
   <path fill="url(#linearGradient3219)" fill-rule="evenodd" id="path4248" d="m503.591614,901.39502c4.850372,0.230957 9.700806,0.461853 14.551208,0.692871c2.483093,-15.937073 -42.845337,-26.850403 -59.76413,-23.385803l-0.692902,2.251831c34.2995,-2.367432 46.598694,8.60376 45.905823,20.441101l0,0z"/>
   <rect fill="url(#linearGradient3228)" fill-rule="evenodd" stroke="url(#linearGradient3229)" stroke-width="0.726845" y="-907.996785" x="533.174708" width="9.43181" transform="scale(1,-1) " ry="2.449751" id="rect4249" height="18.496308"/>
   <path fill="none" fill-rule="evenodd" stroke="url(#linearGradient3216)" stroke-width="0.781433" id="path4250" d="m466.968506,944.620605c5.774292,-0.231018 11.548584,-0.461975 17.322906,-0.692932c4.850494,1.616821 8.661499,4.27301 12.472595,7.968628c-12.357117,5.774414 -25.060608,7.737488 -39.149902,7.968506c-0.346497,-6.467224 3.811096,-10.855835 9.354401,-15.244202l0,0z"/>
   <path fill="url(#linearGradient3218)" fill-rule="evenodd" id="path4251" d="m503.346588,938.037903c4.850403,-0.230896 9.700897,-0.461914 14.551239,-0.692932c2.483093,15.937134 -42.845337,26.850403 -59.764038,23.385803l-0.692902,-2.25177c34.299408,2.367371 46.598724,-8.603821 45.905701,-20.441101l0,0z"/>
   <path fill="url(#linearGradient3222)" fill-rule="evenodd" stroke="url(#linearGradient3221)" stroke-width="0.781433" id="path4252" d="m531.089905,911.914001c11.636475,-2.082275 14.934814,-12.244324 4.287292,-13.106384c-8.853882,-0.708923 -13.719177,3.552063 -18.618896,12.861511c0,0 -0.244873,7.961853 -0.122375,8.635498c-0.122498,0.673462 0.122375,8.635498 0.122375,8.635498c4.899719,9.309387 8.270996,16.320801 17.148987,16.046265c11.872498,-0.372314 5.389282,-10.779114 -2.940002,-17.148682l0.12262,-15.923706z"/>
   <path fill="url(#linearGradient3232)" fill-rule="evenodd" stroke="url(#linearGradient3233)" stroke-width="0.781433" id="path4253" d="m472.173401,869.901184c11.228394,8.3703 26.463409,10.113403 37.727386,16.658936c5.989899,3.545776 9.881012,11.473389 9.309296,19.598572c1.306702,-0.979919 2.61322,-1.959778 3.9198,-2.939697c-1.224976,-9.431885 -6.708008,-18.601868 -14.698975,-22.048584c-19.932495,-8.666992 -22.415894,-6.777893 -21.313599,-23.518433c-3.593018,-0.163391 -6.451202,0.16333 -10.044312,0c-1.633209,4.08313 -3.266388,8.166138 -4.899597,12.249207l0,0z"/>
   <path fill="url(#linearGradient3141)" fill-rule="evenodd" stroke="#00007f" id="path4254" d="m528.806946,835.851501c-0.538513,-3.476379 -6.801086,-5.39209 -13.987793,-4.27887c-7.186768,1.11322 -12.576233,4.833801 -12.03772,8.310181c0.538483,3.47644 6.800995,5.392151 13.987793,4.278931c7.186707,-1.11322 12.576172,-4.833862 12.03772,-8.310242z"/>
   <path fill="url(#linearGradient3255)" fill-rule="evenodd" stroke="url(#linearGradient3254)" stroke-width="0.781433" id="path4255" d="m397.059906,1093.995972l3.291382,-6.755981c-0.923889,-35.166016 -2.712982,-70.330994 -2.771698,-105.498291c-0.056793,-34.067688 1.616913,-68.137512 2.425201,-102.206421l-4.330688,-6.582764l-4.330811,-0.346436l-8.128204,110.781433l7.781799,110.781433l6.063019,-0.172974l0,0l0,0l0,0z"/>
   <path fill-rule="evenodd" stroke-width="0.781433" id="path4256" d="m400.351288,1087.23999c-0.923889,-35.166016 -2.712982,-70.330994 -2.771698,-105.498291c-0.056793,-34.067688 1.616913,-68.137512 2.425201,-102.206421l-4.330688,-6.582764c2.829498,36.378662 -0.978912,72.756287 -0.866211,109.135803c-0.0578,37.24469 2.309723,74.489685 1.905518,111.733704l3.637878,-6.582031l0,0z"/>
   <path fill="url(#linearGradient3265)" fill-rule="evenodd" stroke="url(#linearGradient3266)" stroke-width="0.781433" id="path4257" d="m499.26709,1113.396973l54.048218,-20.442017l29.795776,-2.424927l-13.165466,10.047974l-36.378723,11.085938l-34.299805,1.733032z"/>
   <path fill="url(#linearGradient3263)" fill-rule="evenodd" stroke="url(#linearGradient3264)" stroke-width="0.781433" id="path4258" d="m492.337891,851.470703l0.346497,5.543396c0,0 73.450134,-0.964722 89.041016,20.862488c18.387024,28.636414 17.2276,103.422302 16.785583,104.044189c-8.123596,27.679199 -1.198059,90.025269 -18.20697,108.669189c-25.35791,24.562988 -86.926727,22.460083 -86.926727,22.460083l0.346497,1.73291c0,0 70.332001,4.850098 92.159088,-24.598999c21.827148,-29.449951 16.630127,-84.190979 17.669556,-108.09668c1.03949,-23.906006 1.03949,-101.167297 -28.063416,-115.372192c-29.103027,-14.205017 -83.151123,-14.205017 -83.151123,-15.244385l0,0l0,0l0,0z"/>
   <path fill="url(#linearGradient3238)" fill-rule="evenodd" stroke="url(#linearGradient3243)" stroke-width="0.781433" id="path4259" d="m542.57489,975.504517c0,0 -44.693481,-5.889893 -53.355103,-5.889893c-8.661591,0 -10.047485,1.385864 -10.393982,12.472656c-0.346405,11.086792 -0.346405,16.976624 10.740387,16.630249c11.0867,-0.346558 53.701691,-7.622253 53.701691,-7.622253l-0.692993,-15.590759z"/>
   <path fill="url(#linearGradient3239)" fill-rule="evenodd" stroke="url(#linearGradient3242)" stroke-width="0.781433" id="path4260" d="m502.731689,971.000488c0,0 -4.850281,-1.385864 -13.511902,-1.385864c-8.661591,0 -10.047485,1.385864 -10.393982,12.472656c-0.346405,11.086792 -0.346405,16.976624 10.740509,16.630249c6.236298,-0.346558 7.968597,-1.039429 12.819,-1.385925l0.346375,-26.331116l0,0z"/>
   <rect fill="url(#linearGradient3241)" fill-rule="evenodd" y="974.465074" x="521.094264" width="8.315128" ry="3.118137" id="rect4261" height="18.708989"/>
   <rect fill="url(#linearGradient3240)" fill-rule="evenodd" y="975.504472" x="500.999478" width="4.157564" ry="3.464581" id="rect4262" height="17.323142"/>
   <path fill="url(#linearGradient3211)" fill-rule="evenodd" stroke="url(#linearGradient3210)" stroke-width="0.781428" id="path4263" d="m405.073608,907.284485c2.742889,-25.371887 -4.571594,-19.657471 -4.571594,-19.657471c0,0 -0.228607,-8.228699 -2.971527,76.80481c0,0 4.000122,-1.94281 5.657318,-4.114319l1.885803,-53.03302z"/>
   <path fill="url(#linearGradient3245)" fill-rule="evenodd" stroke="url(#linearGradient3244)" stroke-width="0.781433" id="path4264" d="m412.651611,977.929382c0,0 30.674103,-0.25708 35.685699,-3.4646c3.649902,-2.335876 25.638275,-2.771667 27.71698,0.346497c2.078918,3.118103 3.464722,15.59082 0,17.669617c-3.464478,2.078796 -21.827087,2.771729 -28.063477,0c-6.236328,-2.771667 -5.196899,-3.811096 -14.551422,-3.811096c-9.354492,0 -32.2211,0 -32.2211,0l0.346405,-10.740417l11.086914,0l0,0z"/>
   <path fill="none" fill-rule="evenodd" stroke="url(#linearGradient3108)" stroke-width="0.781433" id="path4265" d="m317.810486,870.79187c-9.932983,0 -17.828888,4.238647 -26.514679,21.943115c-19.657501,31.69574 -22.857513,144.764038 0,181.489014c10.057281,23.646973 20.696106,23.313965 31.08609,22.400024l36.572113,-6.857056c25.01889,-3.199951 19.657501,-6.525024 16.457397,-18.74292l-1.828613,-161.831665c2.74292,-23.6474 10.390198,-28.343201 -9.143005,-30.628967l-46.629303,-7.771545l0,0l0,0z"/>
   <path fill="url(#linearGradient3137)" fill-rule="evenodd" stroke="url(#linearGradient3136)" stroke-width="0.781433" id="path4266" d="m381.35199,990.113281c-1.37149,20.299744 2.64212,78.000732 6.85672,98.114746c1.066803,0.914917 -79.237915,18.286011 -83.656403,16.458008c-46.528503,-21.486084 -46.171906,-102.044006 -46.400421,-122.201111c-0.228577,-20.156799 0.32901,-89.743835 45.0289,-119.458313c5.790009,-4.34259 73.294525,13.486206 86.170929,15.771912c-10.3862,41.371948 -7.999725,93.586792 -7.999725,111.31488l0,0l0,0l0,0l0,0l0,-0.000122z"/>
   <path fill="url(#linearGradient3224)" fill-rule="evenodd" id="path4267" d="m531.089905,911.914001c11.636475,-2.082275 14.934814,-12.244324 4.287292,-13.106384c-8.853882,-0.708923 -13.719177,3.552063 -18.618896,12.861511c0,0 -0.244873,7.961853 -0.122375,8.635498c-0.122498,0.673462 0.122375,8.635498 0.122375,8.635498c4.899719,9.309387 8.270996,16.320801 17.148987,16.046265c11.872498,-0.372314 5.389282,-10.779114 -2.940002,-17.148682l0.12262,-15.923706z"/>
   <path fill="url(#linearGradient3253)" fill-rule="evenodd" stroke="url(#linearGradient3252)" stroke-width="0.781433" id="path4268" d="m396.367798,971.000183c15.937317,0 22.520111,-0.692993 22.520111,12.819092c0.346497,12.819214 -5.196899,13.512146 -22.520111,12.819153l0,-19.401917l0,-6.236328l0,0z"/>
   <path fill="url(#linearGradient3250)" fill-rule="evenodd" stroke="url(#linearGradient3251)" stroke-width="0.781433" id="path4269" d="m396.367798,977.236511c14.551392,-0.346436 15.244415,0 15.244415,5.889893c0,5.889893 0.346497,7.622192 -15.244415,7.275696l0,-13.165588l0,0z"/>
   <rect fill="url(#linearGradient3249)" fill-rule="evenodd" y="982.779831" x="412.99814" width="41.575471" id="rect4270" height="2.771669"/>
   <rect fill="url(#linearGradient3248)" fill-rule="evenodd" y="981.394028" x="423.045442" width="16.97671" ry="1.039355" id="rect4271" height="5.196955"/>
   <rect fill="url(#linearGradient3246)" fill-rule="evenodd" stroke="url(#linearGradient3247)" stroke-width="0.781433" y="976.543565" x="454.227142" width="19.748404" ry="2.771634" id="rect4272" height="14.204983"/>
   <path fill="url(#linearGradient3140)" fill-rule="evenodd" stroke="url(#linearGradient3144)" stroke-width="0.781433" id="path4273" d="m305.011902,1105.307007l-3.657196,3.885986l17.996704,4.343018l72.771088,-18.827026l-2.971405,-8.937988c-27.276703,10.209961 -55.948181,15.041016 -84.139191,19.536011l0,0l0,0l0,0z"/>
   <path fill="url(#linearGradient3142)" fill-rule="evenodd" stroke="url(#linearGradient3143)" stroke-width="0.781433" id="path4274" d="m305.811798,862.216187l-3.657196,-3.885803l17.371796,-4.342957l72.458588,18.514648l-2.971497,8.000244c-27.276703,-10.209839 -55.01059,-13.790833 -83.201691,-18.286133l0,0z"/>
   <path fill="url(#linearGradient3261)" fill-rule="evenodd" stroke="url(#linearGradient3262)" stroke-width="0.781433" id="path4275" d="m547.771912,874.337219l33.260498,3.4646c0,0 20.441284,19.4021 18.016113,110.521912c-2.425293,91.119263 -18.709045,102.899292 -18.709045,102.899292l-31.874695,2.078979c0,0 -7.719177,-71.098022 -6.17627,-111.310303c1.607666,-41.44342 5.136902,-107.307983 5.483398,-107.65448l0,0z"/>
   <g font-size="12" id="g4276">
    <path fill="url(#svg_70)" fill-rule="evenodd" stroke="url(#svg_71)" stroke-width="0.781433" id="path4277" d="m398.011566,999.675354l38.707397,-2.694763c4.164825,0.735046 -2.939697,2.93988 18.618805,2.694885c2.939819,0 32.337891,1.224854 38.462524,1.46991c18.292175,2.449768 31.929688,8.819397 49.731812,10.289307c1.14325,25.233398 1.551575,45.812134 4.164795,71.290405l-41.892212,15.43396l-114.16272,0.244995l8.819397,-10.534302l-2.449799,-88.194397l0,0z"/>
    <path fill="url(#svg_68)" fill-rule="evenodd" stroke="url(#svg_69)" stroke-width="0.781433" id="path4278" d="m398.008789,1002.374146c0,0 50.466492,-1.9599 61.245697,-1.469788c10.779205,0.48999 57.325897,5.389709 59.285797,28.90802c1.959778,23.518188 1.469788,33.317627 1.469788,33.317627c0.97998,18.61853 -31.847717,28.907837 -50.466278,28.417969c-18.618713,-0.48999 -9.799316,-10.779297 -9.799316,-10.779297l-61.735687,-78.394531l0,0z"/>
    <path fill="url(#svg_66)" fill-rule="evenodd" stroke="url(#svg_67)" stroke-width="0.781428" id="path4279" d="m467.787384,1046.78418l0.457184,25.600464l-10.057404,11.428833c0,0 -31.543488,6.400269 -40.229401,6.400269c-8.685883,0 -17.371887,-2.285767 -17.371887,-2.285767c0,0 0,0 -2.742889,-85.03363c0,0 4.000092,1.94281 5.657288,4.114319c2.831818,-1.826904 10.114502,-1.371399 14.457489,-1.371399c8.685913,0 40.229401,6.400085 40.229401,6.400085l10.057404,11.428711l-0.457184,25.600098"/>
    <path fill="url(#svg_64)" fill-rule="evenodd" stroke="url(#svg_65)" stroke-width="0.781433" id="path4280" d="m505.923584,1029.077393c-3.257202,0 -4.532104,6.174561 -4.532104,9.431763c0,9.146118 0,9.35022 0,18.496338c0,3.257202 1.152405,9.431763 4.409607,9.431763c2.939819,0 5.8797,0 8.819397,0c3.257324,0 5.879578,-2.009766 5.879578,-5.26709c-4.164673,-1.551636 -6.124573,-22.334229 0,-27.438232c0.027893,-3.422119 -2.499695,-4.654541 -5.75708,-4.654541l-8.819397,0l0,0l0,0z"/>
    <path fill="none" fill-rule="evenodd" stroke="url(#svg_63)" stroke-width="0.781433" id="path4281" d="m403.557983,1014.782654l0,32.686462l37.486481,0l0,-26.743469c-12.724091,-1.295288 -25.676697,-2.361877 -37.486481,-5.942993l0,0z"/>
    <path fill="none" fill-rule="evenodd" stroke="url(#svg_62)" stroke-width="0.781433" id="path4282" d="m440.815979,1020.954285l0,26.743469l26.972107,0l0.228485,-25.829163l-27.200592,-0.914307l0,0z"/>
    <path fill="none" fill-rule="evenodd" stroke="url(#svg_61)" stroke-width="0.781433" id="path4283" d="m403.557983,1080.525146l0,-32.686401l37.486481,0l0,26.743408c-12.724091,1.295288 -25.676697,2.361938 -37.486481,5.942993l0,0z"/>
    <path fill="none" fill-rule="evenodd" stroke="url(#svg_60)" stroke-width="0.781433" id="path4284" d="m440.815979,1074.353638l0,-26.74353l26.972107,0l0.228485,25.829102l-27.200592,0.914429l0,0z"/>
    <path fill="none" fill-rule="evenodd" stroke="url(#svg_59)" stroke-width="0.781433" id="path4285" d="m467.52597,1072.513916c5.774323,-0.231079 11.548615,-0.462036 17.322906,-0.692993c4.850525,1.616821 8.661499,4.273071 12.472595,7.968628c-12.357086,5.774414 -25.060608,7.737549 -39.149902,7.968506c-0.346497,-6.467163 3.811005,-10.855713 9.354401,-15.244141l0,0z"/>
    <path fill="url(#svg_57)" fill-rule="evenodd" stroke="url(#svg_58)" stroke-width="0.781433" id="path4286" d="m537.897461,1064.351318l2.449829,13.229126l-23.518494,0.734985l7.104553,-17.148926l13.964111,3.184814z"/>
    <path fill="url(#svg_56)" fill-rule="evenodd" id="path4287" d="m503.904175,1065.931152c4.850403,-0.230957 9.700806,-0.461914 14.551208,-0.692871c2.483093,15.937134 -42.845398,26.850342 -59.764099,23.385864l-0.692902,-2.251831c34.299408,2.367432 46.598785,-8.603882 45.905792,-20.441162l0,0z"/>
    <rect fill="url(#linearGradient3228)" fill-rule="evenodd" stroke="url(#linearGradient3229)" stroke-width="0.726845" y="1059.32941" x="533.487279" width="9.431812" ry="2.449752" id="rect4288" height="18.49631"/>
    <path fill="none" fill-rule="evenodd" stroke="url(#svg_55)" stroke-width="0.781433" id="path4289" d="m467.280975,1022.705566c5.774292,0.231018 11.548615,0.461914 17.322998,0.692871c4.850433,-1.61676 8.661407,-4.273071 12.472504,-7.968567c-12.356995,-5.774414 -25.060608,-7.737488 -39.149902,-7.968506c-0.346497,6.467224 3.811096,10.855713 9.354401,15.244202l0,0z"/>
    <path fill="url(#svg_54)" fill-rule="evenodd" id="path4290" d="m503.65918,1029.28833c4.850403,0.230835 9.700928,0.461792 14.551208,0.692871c2.483093,-15.937256 -42.845398,-26.850525 -59.764099,-23.385925l-0.692902,2.251892c34.299408,-2.367493 46.598785,8.603821 45.905792,20.441162l0,0z"/>
    <path fill="url(#svg_52)" fill-rule="evenodd" stroke="url(#svg_53)" stroke-width="0.781433" id="path4291" d="m531.402466,1055.412231c11.636536,2.082275 14.934814,12.244263 4.287292,13.106445c-8.853882,0.70874 -13.719177,-3.552246 -18.618896,-12.861572c0,0 -0.244873,-7.961914 -0.122375,-8.635498c-0.122498,-0.673584 0.122375,-8.635498 0.122375,-8.635498c4.899719,-9.309448 8.270996,-16.320862 17.148987,-16.046326c11.872559,0.372253 5.389404,10.779114 -2.93988,17.148743l0.122498,15.923706z"/>
    <path fill="url(#svg_50)" fill-rule="evenodd" stroke="url(#svg_51)" stroke-width="0.781428" id="path4292" d="m405.386078,1060.041626c2.742889,25.371948 -4.571594,19.657593 -4.571594,19.657593c0,0 -0.228607,8.22876 -2.971497,-76.804871c0,0 4.000092,1.94281 5.657288,4.114319l1.885803,53.032959z"/>
    <path fill="url(#svg_49)" fill-rule="evenodd" id="path4293" d="m531.402466,1055.412231c11.636536,2.082275 14.934814,12.244263 4.287292,13.106445c-8.853882,0.70874 -13.719177,-3.552246 -18.618896,-12.861572c0,0 -0.244873,-7.961914 -0.122375,-8.635498c-0.122498,-0.673584 0.122375,-8.635498 0.122375,-8.635498c4.899719,-9.309448 8.270996,-16.320862 17.148987,-16.046326c11.872559,0.372253 5.389404,10.779114 -2.93988,17.148743l0.122498,15.923706z"/>
   </g>
   <path fill="none" fill-rule="evenodd" stroke="url(#linearGradient3323)" stroke-width="1.38917" id="path4294" d="m655.072815,888.46582c8.392212,5.218079 15.949768,12.76886 22.296814,22.099182c12.69397,18.660706 20.545288,44.440308 20.545288,72.915588c0,28.475403 -7.851318,54.254395 -20.545288,72.915405c-6.347046,9.331055 -13.904602,16.880981 -22.296814,22.098999"/>
   <g font-size="12" id="g4295">
    <path fill="url(#linearGradient3053)" fill-rule="evenodd" stroke="url(#linearGradient3317)" id="path4296" d="m672.214844,1103.974976l6.950073,1.45459c8.000671,-4.794922 16.809265,-17.428711 12.606934,-32.40625c-2.585999,-2.909302 -5.818542,0.646484 -7.758179,1.939575c-7.891113,18.525513 -9.717224,17.944092 -11.798828,29.012085l0,0l0,0l0,0z"/>
    <path fill="none" fill-rule="evenodd" id="path4297" d="m683.488464,1091.766724c1.601379,-3.804077 1.542908,-7.753662 -0.130676,-8.821777c-1.673645,-1.067993 -4.32843,1.150146 -5.92981,4.954224c-1.601379,3.804199 -1.542908,7.753662 0.130676,8.821777c1.673645,1.067993 4.32843,-1.150146 5.92981,-4.954224l0,0z"/>
    <path fill="url(#linearGradient3053)" fill-rule="evenodd" stroke="url(#linearGradient3317)" id="path4298" d="m672.214966,1103.974976c2.047241,0.646484 4.902649,0.807983 6.949951,1.45459c8.000671,-4.794922 16.809204,-17.428711 12.606934,-32.40625c-2.585999,-2.909302 -5.818542,0.646484 -7.758179,1.939575c1.831726,10.12854 -0.215454,23.247437 -11.798706,29.012085l0,0l0,0z"/>
    <path fill="url(#linearGradient3054)" fill-rule="evenodd" stroke="url(#linearGradient3316)" id="path4299" d="m697.267151,1048.536865c-0.403931,6.195557 -3.232544,16.512817 -5.4953,24.48645c-2.585999,-2.909302 -5.818542,0.646484 -7.758179,1.939575c4.740967,-11.206299 8.296875,-22.223877 13.253479,-26.426025l0,0z"/>
    <path fill="url(#radialGradient3058)" fill-rule="evenodd" id="path4300" d="m684.272278,1092.21228c1.601379,-3.804077 1.542908,-7.753662 -0.130676,-8.821655c-1.673645,-1.067993 -4.32843,1.150024 -5.92981,4.954224c-1.60144,3.804077 -1.542969,7.753662 0.130676,8.821655c1.673584,1.067993 4.32843,-1.150024 5.92981,-4.954224l0,0z"/>
    <path fill="url(#linearGradient3322)" fill-rule="evenodd" id="path4301" d="m672.214844,1103.974976l6.950073,1.45459c8.000671,-4.794922 16.809265,-17.428711 12.606934,-32.40625c-2.585999,-2.909302 -5.818542,0.646484 -7.758179,1.939575c-7.891113,18.525513 -9.717224,17.944092 -11.798828,29.012085l0,0l0,0l0,0z"/>
   </g>
   <g font-size="12" transform="matrix(1,0,0,-1,-16.88445,1280.955) " id="g4302">
    <path fill="url(#linearGradient3053)" fill-rule="evenodd" stroke="url(#linearGradient3317)" id="path4303" d="m689.411804,417.216461l6.950073,1.45462c8.000671,-4.794952 16.809265,-17.428711 12.606934,-32.406189c-2.585999,-2.909271 -5.818542,0.646423 -7.758179,1.939514c-7.891113,18.525513 -9.717224,17.944122 -11.798828,29.012054l0,0l0,0l0,0z"/>
    <path fill="none" fill-rule="evenodd" id="path4304" d="m700.685486,405.008209c1.601379,-3.804108 1.542847,-7.753723 -0.130737,-8.821686c-1.673584,-1.068024 -4.328491,1.150055 -5.929871,4.954193c-1.601379,3.804077 -1.542847,7.753693 0.130737,8.821716c1.673584,1.067993 4.32843,-1.150116 5.92981,-4.954193l0.000061,-0.000031z"/>
    <path fill="url(#linearGradient3053)" fill-rule="evenodd" stroke="url(#linearGradient3317)" id="path4305" d="m689.411926,417.216461c2.047241,0.646484 4.902649,0.808044 6.949951,1.45462c8.000671,-4.794952 16.809204,-17.428772 12.606934,-32.406189c-2.585999,-2.909271 -5.818542,0.646423 -7.758179,1.939514c1.831726,10.128571 -0.215454,23.247406 -11.798706,29.012054l0,0l0,0z"/>
    <path fill="url(#linearGradient3054)" fill-rule="evenodd" stroke="url(#linearGradient3316)" id="path4306" d="m714.464111,361.77829c-0.403931,6.195709 -3.232544,16.51297 -5.4953,24.486603c-2.585999,-2.909271 -5.818542,0.646423 -7.758179,1.939514c4.740967,-11.206299 8.296875,-22.223846 13.253479,-26.426117l0,0z"/>
    <path fill="url(#radialGradient3058)" fill-rule="evenodd" id="path4307" d="m701.469238,405.453796c1.601379,-3.804077 1.542908,-7.753693 -0.130676,-8.821686c-1.673584,-1.068024 -4.328491,1.150085 -5.929871,4.954193c-1.601379,3.804108 -1.542847,7.753723 0.130737,8.821716c1.673584,1.067993 4.32843,-1.150085 5.92981,-4.954193l0,-0.000031z"/>
    <path fill="url(#linearGradient3322)" fill-rule="evenodd" id="path4308" d="m689.411804,417.216461l6.950073,1.45462c8.000671,-4.794952 16.809265,-17.428711 12.606934,-32.406189c-2.585999,-2.909271 -5.818542,0.646423 -7.758179,1.939514c-7.891113,18.525513 -9.717224,17.944122 -11.798828,29.012054l0,0l0,0l0,0z"/>
   </g>
   <path fill="url(#linearGradient3011)" fill-rule="evenodd" stroke="url(#linearGradient3070)" stroke-width="0.781433" id="path4309" d="m319.497986,1113.401001c-3.292297,0 -16.544983,14.540039 -18.599579,16.819946c-3.112,3.223999 165.260986,-1.736938 194.975983,-1.371948c1.600006,-4.343018 0.457123,-1.599976 -1.371582,-18.515015c-2.742798,-2.37793 -19.336609,0.229004 -22.628998,0.229004c-53.944214,0 -93.259399,2.514038 -147.203613,2.514038l0,0l-5.172211,0.323975l0,0z"/>
   <path fill="url(#linearGradient3047)" fill-rule="evenodd" stroke="url(#linearGradient3104)" stroke-width="0.781433" id="path4310" d="m464.529114,1125.708984c-1.4328,0 -9.051208,0.829956 -9.051208,2.263062l0,0.968994c0,1.432983 1.476501,2.262939 2.909302,2.262939l29.093292,-0.322998c1.432709,0 2.90921,-0.506958 2.90921,-1.939941l0,-0.968994c0,-1.433105 -3.416107,-2.263062 -4.848724,-2.263062l-21.011871,0l0,0z"/>
   <path fill="url(#linearGradient3173)" fill-rule="evenodd" stroke="url(#linearGradient3172)" stroke-width="0.781433" id="path4311" d="m358.678589,1105.765991c-1.969879,0 -32.550385,6.688965 -30.580475,6.688965c40.515198,0 115.902771,-0.227905 155.205292,-2.265015c2.936798,-0.12793 3.675385,-3.575928 3.232483,-5.494995c-1.939575,-8.727905 -5.4729,-7.934937 -7.434875,-7.757935c-39.545319,3.879028 -75.203705,-11.724976 -110.365112,4.256958l-10.057312,4.572021l0,0l0,0z"/>
   <path fill="url(#linearGradient3174)" fill-rule="evenodd" stroke="url(#linearGradient3175)" stroke-width="0.781433" id="path4312" d="m369.193115,1102.109009c-1.96991,0 -12.314209,9.697998 -10.34433,9.697998c40.515106,0 85.1521,0.420044 124.45462,-1.617065c2.936798,-0.12793 3.675385,-3.575928 3.232483,-5.494995c-1.939575,-8.727905 -5.4729,-7.934937 -7.434875,-7.757935c-39.545319,3.879028 -69.392914,5.171997 -109.907898,5.171997l0,0z"/>
   <path fill="url(#linearGradient3112)" fill-rule="evenodd" stroke="url(#linearGradient3113)" stroke-width="0.781433" id="path4313" d="m324.670197,1113.077026c-3.292389,0 20.569489,3.434937 33.601013,3.428955c4.480377,-0.080933 101.716583,-0.36499 136.231781,-2.286011c0.685608,-0.91394 0.457001,-2.970947 -0.000183,-3.885986c-2.742798,-2.37793 -19.336609,0.229004 -22.628998,0.229004c-53.944214,0 -93.259399,2.514038 -147.203613,2.514038l0,0l0,0l0,0z"/>
   <path fill="url(#linearGradient3102)" fill-rule="evenodd" stroke="url(#linearGradient3103)" stroke-width="0.781433" id="path4314" d="m319.225189,1113.587036c16.270599,1.669922 24.979126,1.424927 26.992096,7.918945c8.409119,28.174072 8.512421,31.356079 29.093018,31.032959l-12.606995,-35.234985c-3.124817,0.108032 -6.572906,-0.10791 -7.434906,-3.555908l12.606995,-11.960083l-48.650208,11.799072l0,0z"/>
   <path fill="url(#linearGradient3100)" fill-rule="evenodd" stroke="url(#linearGradient3101)" stroke-width="0.781433" id="path4315" d="m346.217285,1121.505981c8.409119,28.174072 8.512421,31.356079 29.093018,31.032959l-12.606995,-35.234985c-3.124817,0.108032 -6.572906,-0.10791 -7.434906,-3.555908c0,0 -11.064087,1.263916 -9.051117,7.757935l0,0z"/>
   <path fill="url(#linearGradient3232)" fill-rule="evenodd" stroke="url(#linearGradient3233)" stroke-width="0.781433" id="path4316" d="m472.485901,1097.425049c11.228394,-8.369995 26.463409,-10.113037 37.727386,-16.659058c5.989899,-3.546021 9.881012,-11.473022 9.309418,-19.598999c1.30658,0.97998 2.613098,1.959961 3.919678,2.940063c-1.224976,9.431885 -6.708008,18.601929 -14.698975,22.04895c-19.932495,8.666992 -22.415894,6.777954 -21.313507,23.517944c-3.593109,0.163086 -6.451202,-0.162964 -10.044312,0c-1.633179,-4.083008 -3.266479,-8.165894 -4.899689,-12.248901l0,0z"/>
   <g font-size="12" id="g4317">
    <path fill="url(#linearGradient3145)" fill-rule="evenodd" stroke="url(#linearGradient3146)" stroke-width="0.781433" id="path4318" d="m387.871643,985.612488c-0.106018,-24.019104 -1.263306,-71.190002 9.506104,-107.396667c-0.457214,-4.955017 -4.855804,-3.172729 -6.433594,-3.214539c-12.468506,37.084717 -9.714722,98.11908 -9.653412,116.764465c0.06131,18.645508 -2.815094,63.878296 9.653412,100.963013c1.577789,-0.041626 5.976379,1.740601 6.433594,-3.214478c-10.769409,-36.206543 -9.734711,-83.744934 -9.506104,-103.901794l0,0z"/>
    <path fill="url(#linearGradient3147)" fill-rule="evenodd" stroke="url(#linearGradient3148)" stroke-width="0.781433" id="path4319" d="m384.196838,983.652527c-0.105988,-24.019104 0.941498,-70.454956 10.485992,-108.131531c-1.1922,-1.52533 -2.160889,-0.477905 -3.738678,-0.519714c-12.468506,37.084717 -9.714722,98.11908 -9.653412,116.764465c0.06131,18.645508 -2.815094,63.878296 9.653412,100.963013c1.577789,-0.041626 2.546478,1.25061 3.248779,-1.499512c-8.809601,-37.186523 -10.469604,-84.724976 -10.240997,-104.881836l0.244904,0l0,-2.694885l0,0z"/>
   </g>
  </g>
 </g>
</svg>